<?xml version="1.0" encoding="UTF-8" standalone="no"?>
<svg xmlns="http://www.w3.org/2000/svg" version="1.2" baseProfile="tiny" viewBox="0.00 0.00 502.00 498.00">
<g stroke-width="2.00" fill="none" stroke-linecap="butt">
<path stroke="#dab5c4" vector-effect="non-scaling-stroke" d="
  M 169.48 116.07
  Q 169.25 116.19 169.03 116.19
  Q 168.69 116.19 168.42 116.41
  C 163.93 120.09 159.13 123.50 154.89 127.32
  Q 152.04 129.89 149.18 132.45
  Q 127.24 152.13 112.96 177.91
  C 89.89 219.56 87.20 271.97 105.18 316.22
  Q 107.54 322.04 109.81 327.76"
/>
<path stroke="#8080b0" vector-effect="non-scaling-stroke" d="
  M 109.81 327.76
  C 92.80 353.75 82.96 384.39 100.48 413.28
  Q 106.97 423.98 116.65 432.28
  Q 121.53 436.48 129.07 440.63
  Q 129.89 441.08 130.06 440.16
  Q 137.20 401.75 145.41 362.99
  Q 147.68 352.30 149.31 346.75
  C 151.87 337.99 157.81 333.34 165.99 328.82"
/>
<path stroke="#95d1ff" vector-effect="non-scaling-stroke" d="
  M 165.99 328.82
  L 179.63 348.08"
/>
<path stroke="#ff81ba" vector-effect="non-scaling-stroke" d="
  M 179.63 348.08
  Q 180.11 349.07 180.36 350.27
  Q 183.65 366.06 186.95 381.83
  Q 189.08 392.03 191.47 396.21
  Q 198.15 407.93 213.22 409.54
  Q 224.93 410.79 236.30 410.79
  Q 237.84 410.79 236.47 411.50
  Q 220.79 419.65 210.70 434.18"
/>
<path stroke="#95d1ff" vector-effect="non-scaling-stroke" d="
  M 210.70 434.18
  C 203.35 434.25 195.52 434.40 190.57 431.18
  Q 181.81 425.49 176.36 413.76"
/>
<path stroke="#8080b0" vector-effect="non-scaling-stroke" d="
  M 176.36 413.76
  L 176.25 356.88
  Q 176.24 352.58 171.96 352.16
  L 170.95 352.06
  A 3.12 3.12 0.0 0 0 167.52 355.16
  L 167.42 389.93"
/>
<path stroke="#95d1ff" vector-effect="non-scaling-stroke" d="
  M 167.42 389.93
  Q 162.47 381.68 159.58 373.86
  A 0.34 0.34 0.0 0 0 158.93 373.94
  L 149.80 442.39
  Q 149.72 442.98 150.31 443.06
  C 158.24 444.16 165.67 443.44 173.18 443.55
  C 183.19 443.69 192.40 443.58 202.00 443.83
  Q 202.96 443.85 206.53 442.85"
/>
<path stroke="#ff81ba" vector-effect="non-scaling-stroke" d="
  M 206.53 442.85
  L 241.21 442.63"
/>
<path stroke="#8080b0" vector-effect="non-scaling-stroke" d="
  M 241.21 442.63
  L 250.61 442.72"
/>
<path stroke="#95d1ff" vector-effect="non-scaling-stroke" d="
  M 250.61 442.72
  L 268.76 442.59"
/>
<path stroke="#8080b0" vector-effect="non-scaling-stroke" d="
  M 268.76 442.59
  Q 271.35 442.63 274.50 442.54
  Q 293.29 442.04 312.03 442.86"
/>
<path stroke="#95d1ff" vector-effect="non-scaling-stroke" d="
  M 312.03 442.86
  C 314.76 442.85 317.43 443.55 319.99 443.49
  C 327.77 443.28 335.47 443.79 343.28 443.50
  C 348.76 443.29 355.41 443.75 359.67 443.72
  C 367.72 443.66 375.69 441.83 383.00 442.40
  Q 387.26 442.74 390.16 440.92"
/>
<path stroke="#8080b0" vector-effect="non-scaling-stroke" d="
  M 390.16 440.92
  C 410.34 431.12 426.49 408.86 428.21 386.25
  Q 429.18 373.59 425.32 360.45
  Q 421.60 347.76 418.40 342.09
  Q 414.21 334.68 410.13 327.30"
/>
<path stroke="#dab5c4" vector-effect="non-scaling-stroke" d="
  M 410.13 327.30
  C 430.09 284.01 431.71 230.77 411.55 187.26
  C 403.54 169.97 393.13 154.95 379.99 141.20
  C 375.29 136.28 369.29 131.41 363.88 126.56
  C 360.22 123.27 356.17 120.69 352.52 117.47
  Q 351.20 116.30 349.64 115.99"
/>
<path stroke="#8080b0" vector-effect="non-scaling-stroke" d="
  M 349.64 115.99
  C 338.00 89.13 314.02 66.50 284.79 60.60
  C 275.47 58.71 268.32 57.89 260.69 62.73
  A 1.28 1.28 0.0 0 1 259.34 62.75
  Q 252.86 58.80 245.25 59.32
  C 212.84 61.51 185.54 83.73 171.20 113.51
  Q 170.73 114.50 169.48 116.07"
/>
<path stroke="#5a3575" vector-effect="non-scaling-stroke" d="
  M 349.64 115.99
  L 351.19 118.43"
/>
<path stroke="#802b60" vector-effect="non-scaling-stroke" d="
  M 351.19 118.43
  C 355.55 130.90 357.24 140.98 358.64 152.91
  A 0.97 0.97 0.0 0 0 359.29 153.72
  Q 369.77 157.37 379.45 152.35
  Q 380.41 151.85 379.79 152.74
  Q 372.92 162.64 360.78 163.86
  A 0.49 0.49 0.0 0 0 360.33 164.37
  Q 360.51 169.33 360.70 174.31
  C 360.81 177.20 361.95 179.23 364.04 180.96
  C 374.15 189.38 384.05 181.71 389.34 172.51
  Q 389.95 171.45 390.10 172.67
  Q 391.33 182.77 384.46 189.00
  C 379.44 193.54 371.93 195.19 365.56 192.94
  Q 362.58 191.89 365.03 193.88
  C 381.93 207.62 397.84 224.70 396.58 248.11"
/>
<path stroke="#80246b" vector-effect="non-scaling-stroke" d="
  M 396.58 248.11
  Q 394.14 264.42 381.52 274.03
  A 0.81 0.81 0.0 0 0 381.26 274.99
  C 388.78 292.73 398.58 309.68 409.16 325.74"
/>
<path stroke="#5a3575" vector-effect="non-scaling-stroke" d="
  M 409.16 325.74
  L 410.13 327.30"
/>
<path stroke="#1551b0" vector-effect="non-scaling-stroke" d="
  M 390.16 440.92
  L 389.00 436.80"
/>
<path stroke="#8080b0" vector-effect="non-scaling-stroke" d="
  M 389.00 436.80
  C 383.81 409.88 378.42 383.03 372.70 356.20
  Q 370.39 345.36 367.89 341.22
  Q 363.10 333.26 353.52 329.09"
/>
<path stroke="#1551b0" vector-effect="non-scaling-stroke" d="
  M 353.52 329.09
  Q 352.68 328.34 352.00 328.30
  Q 351.44 328.26 350.78 329.12
  Q 344.79 336.89 338.93 344.69"
/>
<path stroke="#7f016b" vector-effect="non-scaling-stroke" d="
  M 338.93 344.69
  C 336.30 347.64 333.08 350.36 331.96 354.29
  Q 327.88 368.61 323.23 382.77
  C 322.40 385.32 323.07 387.22 320.18 388.67
  Q 300.49 398.51 278.88 403.46
  A 1.93 1.93 0.0 0 0 277.39 405.47
  Q 277.75 410.45 274.89 414.46
  A 0.49 0.48 31.7 0 0 275.06 415.17
  Q 283.98 419.77 289.01 428.51
  Q 289.50 429.36 288.68 428.81
  Q 280.69 423.33 271.31 420.81
  A 0.50 0.50 0.0 0 0 270.71 421.47
  L 277.95 440.49
  A 1.79 1.77 78.9 0 0 279.64 441.64
  Q 287.34 441.52 295.13 441.23
  C 299.91 441.04 304.68 441.76 309.57 441.93
  C 310.54 441.97 311.31 441.60 312.17 441.24"
/>
<path stroke="#1551b0" vector-effect="non-scaling-stroke" d="
  M 312.17 441.24
  L 312.68 442.22
  Q 312.87 442.59 312.46 442.67
  Q 312.16 442.73 312.03 442.86"
/>
<path stroke="#1551b0" vector-effect="non-scaling-stroke" d="
  M 268.76 442.59
  L 263.24 424.07
  A 1.12 1.11 -7.5 0 0 262.20 423.28
  L 257.39 423.15
  Q 256.78 423.13 256.59 423.71
  L 250.61 442.72"
/>
<path stroke="#7f016b" vector-effect="non-scaling-stroke" d="
  M 241.21 442.63
  Q 244.53 431.37 249.36 421.31
  A 0.47 0.47 0.0 0 0 248.82 420.65
  Q 239.76 422.98 232.01 428.18
  Q 230.75 429.02 231.46 427.68
  Q 235.81 419.46 244.16 415.39
  A 0.50 0.49 61.0 0 0 244.36 414.69
  Q 241.48 410.13 241.88 404.73
  A 1.07 1.06 -81.8 0 0 241.06 403.62
  Q 219.96 398.81 200.22 389.53
  C 198.69 388.81 198.00 388.88 197.47 387.07
  Q 193.36 373.02 188.99 359.04
  C 187.94 355.69 187.95 352.95 185.55 350.06
  Q 183.09 347.08 180.54 344.09"
/>
<path stroke="#1551b0" vector-effect="non-scaling-stroke" d="
  M 180.54 344.09
  Q 173.99 336.89 168.74 328.64
  Q 168.48 328.22 167.99 328.17
  Q 166.66 328.04 165.99 328.82"
/>
<path stroke="#5a3575" vector-effect="non-scaling-stroke" d="
  M 109.81 327.76
  L 111.70 324.33"
/>
<path stroke="#80246b" vector-effect="non-scaling-stroke" d="
  M 111.70 324.33
  C 121.16 308.21 130.55 292.58 138.18 275.53
  A 1.35 1.34 31.1 0 0 137.78 273.92
  C 126.36 264.97 121.06 251.69 123.44 237.46
  C 126.29 220.42 140.99 204.60 153.83 194.25
  Q 156.87 191.80 153.19 193.11
  Q 145.39 195.90 137.51 190.69
  Q 132.37 187.30 130.23 181.80"
/>
<path stroke="#802b60" vector-effect="non-scaling-stroke" d="
  M 130.23 181.80
  Q 128.97 176.61 129.66 173.06
  Q 129.90 171.85 130.53 172.91
  C 133.64 178.18 139.45 184.12 145.77 184.46
  C 150.36 184.69 155.73 182.40 157.87 178.10
  C 159.45 174.92 158.84 168.95 158.79 165.13
  Q 158.78 164.09 157.75 163.93
  Q 146.53 162.13 140.47 152.65
  A 0.18 0.18 0.0 0 1 140.70 152.39
  Q 150.33 157.35 160.52 153.60
  A 0.96 0.95 82.3 0 0 161.14 152.78
  Q 162.23 138.33 166.83 124.44
  Q 167.88 121.28 168.77 117.91"
/>
<path stroke="#5a3575" vector-effect="non-scaling-stroke" d="
  M 168.77 117.91
  L 169.48 116.07"
/>
<path stroke="#9452ba" vector-effect="non-scaling-stroke" d="
  M 308.94 434.55
  C 309.75 436.37 312.03 439.01 312.17 441.24"
/>
<path stroke="#ff4f69" vector-effect="non-scaling-stroke" d="
  M 130.23 181.80
  Q 129.16 183.36 124.06 183.42
  Q 123.58 183.43 123.25 183.07
  Q 122.94 182.73 122.62 182.73
  Q 120.73 182.72 119.73 184.20
  Q 119.41 184.67 118.95 184.34
  Q 118.19 183.79 117.46 184.03
  Q 116.02 184.49 115.94 184.49
  Q 114.47 184.48 113.41 183.44
  Q 113.31 183.34 113.38 183.23
  L 113.58 182.93
  Q 113.74 182.68 113.66 182.39
  Q 113.44 181.56 113.96 180.98
  Q 114.24 180.66 114.31 180.25
  L 114.53 178.77
  Q 114.60 178.33 114.90 178.00
  Q 115.31 177.56 115.39 177.01
  Q 115.60 175.73 115.10 177.01
  Q 114.85 177.66 114.48 178.22
  C 113.63 179.52 113.75 180.57 112.27 181.50"
/>
<path stroke="#ff4f69" vector-effect="non-scaling-stroke" d="
  M 424.10 246.70
  Q 423.78 246.92 423.83 247.14
  Q 423.86 247.27 423.87 247.13
  Q 424.04 245.41 423.63 243.50
  Q 423.52 243.00 422.90 242.70
  Q 422.66 242.59 422.53 242.82
  Q 422.39 243.08 422.13 243.20
  C 420.37 244.03 419.70 245.34 417.56 245.73
  Q 414.34 246.31 411.10 246.66
  C 408.28 246.96 404.38 248.02 400.84 247.86
  Q 400.36 247.83 399.93 248.04
  Q 399.46 248.27 399.01 248.03
  Q 398.68 247.85 398.37 248.08
  Q 397.93 248.42 397.50 248.38
  Q 397.12 248.34 397.12 248.26
  Q 397.12 248.09 397.12 247.93
  A 0.20 0.20 0.0 0 0 396.96 247.73
  Q 396.65 247.67 396.58 248.11"
/>
<path stroke="#95d1ff" vector-effect="non-scaling-stroke" d="
  M 389.00 436.80
  L 389.06 440.47
  Q 389.07 441.06 388.49 441.13
  C 387.10 441.30 386.01 441.87 384.63 441.86
  Q 381.41 441.84 378.20 442.01
  C 376.32 442.11 373.75 441.64 371.43 442.33
  A 1.13 1.12 77.8 0 1 370.00 441.40
  Q 365.89 412.40 361.81 383.24
  Q 361.14 378.51 360.85 374.09
  A 0.37 0.36 -33.4 0 0 360.16 373.95
  L 352.38 389.51"
/>
<path stroke="#8080b0" vector-effect="non-scaling-stroke" d="
  M 352.38 389.51
  Q 352.31 372.17 352.33 356.00
  C 352.34 351.14 346.11 350.89 344.25 354.13
  Q 343.51 355.41 343.51 358.49
  Q 343.51 385.75 343.49 413.00
  Q 343.49 413.92 342.92 414.90"
/>
<path stroke="#95d1ff" vector-effect="non-scaling-stroke" d="
  M 342.92 414.90
  C 337.97 423.49 334.08 430.27 323.98 433.03
  C 319.78 434.17 313.88 434.02 308.94 434.55"
/>
<path stroke="#ff81ba" vector-effect="non-scaling-stroke" d="
  M 308.94 434.55
  Q 298.66 419.30 282.56 411.27
  Q 281.22 410.60 282.72 410.64
  Q 295.51 410.99 308.76 408.79
  C 321.25 406.72 329.14 397.45 331.72 385.75
  Q 335.77 367.44 339.12 349.59"
/>
<path stroke="#95d1ff" vector-effect="non-scaling-stroke" d="
  M 353.52 329.09
  L 339.12 349.59"
/>
<path stroke="#9452ba" vector-effect="non-scaling-stroke" d="
  M 339.12 349.59
  L 338.93 344.69"
/>
<path stroke="#da597e" vector-effect="non-scaling-stroke" d="
  M 409.16 325.74
  Q 409.88 325.61 410.09 325.12
  Q 410.86 323.33 411.47 321.03
  C 412.17 318.39 413.51 315.91 414.13 313.12
  Q 414.20 312.81 414.68 312.38
  Q 415.05 312.04 415.18 311.55
  Q 416.03 308.32 416.69 306.77
  C 417.61 304.65 417.76 302.61 418.49 300.64
  Q 419.09 299.03 419.53 296.99
  Q 422.93 281.54 424.04 267.23
  Q 424.25 264.63 424.34 262.01
  Q 424.59 254.43 424.30 246.85
  Q 424.30 246.75 424.20 246.72
  Q 424.15 246.71 424.10 246.70"
/>
<path stroke="#da6073" vector-effect="non-scaling-stroke" d="
  M 424.10 246.70
  Q 423.90 243.54 424.05 240.37
  C 424.12 238.85 423.35 237.65 423.33 236.05
  Q 423.26 228.42 422.08 225.01
  Q 421.35 222.87 420.62 217.89
  Q 419.73 211.82 415.57 200.56
  C 415.28 199.78 415.37 198.73 414.89 197.85
  Q 414.24 196.68 414.20 196.58
  Q 410.83 188.53 406.89 180.75
  C 406.24 179.46 405.80 177.69 405.16 176.61
  C 398.63 165.45 391.43 154.90 382.55 145.47
  Q 375.51 138.00 367.82 131.22
  C 366.37 129.94 364.33 128.85 362.63 127.37
  Q 358.11 123.42 351.19 118.43"
/>
<path stroke="#9452ba" vector-effect="non-scaling-stroke" d="
  M 180.54 344.09
  Q 179.83 345.04 180.23 346.75
  Q 180.44 347.62 179.63 348.08"
/>
<path stroke="#da6073" vector-effect="non-scaling-stroke" d="
  M 168.77 117.91
  C 165.44 119.12 162.65 122.14 160.06 124.09
  Q 155.57 127.46 154.29 128.64
  C 149.47 133.07 144.19 137.63 140.00 142.65
  Q 138.33 144.65 136.65 146.62
  C 134.44 149.21 132.10 151.69 129.97 154.33
  C 128.60 156.03 126.73 157.87 125.55 160.26
  Q 124.73 161.93 123.78 162.97
  C 121.15 165.89 119.33 169.37 116.28 174.75
  Q 115.98 175.28 115.62 175.50
  Q 115.29 175.71 115.11 176.05
  L 112.27 181.50"
/>
<path stroke="#da597e" vector-effect="non-scaling-stroke" d="
  M 112.27 181.50
  Q 111.21 184.48 109.40 187.21
  C 109.03 187.78 109.08 188.35 108.70 189.03
  C 107.29 191.55 106.58 194.44 105.42 197.06
  C 104.68 198.74 104.47 200.48 103.72 202.11
  C 103.19 203.26 102.61 204.46 102.46 205.79
  C 102.31 207.10 101.50 208.39 101.26 209.35
  Q 100.29 213.22 99.16 217.06
  C 98.40 219.68 98.38 222.74 97.71 224.99
  Q 95.74 231.59 96.18 238.50
  C 96.24 239.44 95.39 240.71 95.30 241.88
  C 94.55 251.08 93.20 261.77 95.66 270.99
  A 0.11 0.09 12.4 0 0 95.70 271.04
  L 96.05 271.27
  Q 96.12 271.32 96.12 271.40
  Q 96.09 274.33 96.27 277.25
  Q 96.39 279.25 97.30 282.65
  Q 98.05 285.46 98.34 288.35
  Q 98.69 291.83 99.24 294.03
  Q 100.13 297.53 100.86 301.07
  Q 100.89 301.21 101.02 301.28
  L 101.30 301.43
  Q 101.63 301.61 101.70 301.99
  Q 102.59 307.21 103.15 308.48
  Q 106.38 315.77 109.40 323.10
  Q 110.21 325.05 111.70 324.33"
/>
<path stroke="#9452ba" vector-effect="non-scaling-stroke" d="
  M 206.53 442.85
  Q 207.50 438.79 210.70 434.18"
/>
<path stroke="#1551b0" vector-effect="non-scaling-stroke" d="
  M 352.38 389.51
  Q 352.16 413.42 352.22 438.50
  Q 352.23 440.40 351.78 442.31
  Q 351.63 442.95 350.98 442.96
  L 345.29 443.07
  Q 343.47 443.11 343.48 441.29
  L 343.66 416.00
  Q 343.66 415.59 343.29 415.40
  Q 343.00 415.25 342.92 414.90"
/>
<path stroke="#1551b0" vector-effect="non-scaling-stroke" d="
  M 176.36 413.76
  Q 176.12 427.63 175.96 441.00
  Q 175.93 443.12 173.76 443.16
  Q 171.19 443.21 169.57 443.09
  A 2.29 2.28 -88.0 0 1 167.46 440.82
  L 167.42 389.93"
/>
<path stroke="#8080b0" vector-effect="non-scaling-stroke" d="
  M 258.69 74.68
  C 257.51 73.23 253.59 71.26 251.74 71.01
  Q 240.20 69.49 229.04 73.74
  C 200.11 84.77 180.72 108.67 173.27 138.40
  Q 172.01 143.47 171.98 147.97
  Q 171.97 149.36 172.59 148.11
  C 177.69 137.89 184.03 128.44 190.13 118.63
  Q 194.51 111.59 205.12 99.87
  Q 214.55 89.46 229.07 81.35
  C 235.51 77.75 249.80 72.66 256.89 75.99
  Q 258.75 76.86 259.80 77.30
  A 1.16 1.15 -46.5 0 0 260.77 77.27
  C 268.69 73.26 277.68 75.29 285.48 78.85
  C 309.28 89.69 322.44 107.83 337.03 130.26
  Q 339.46 133.99 343.15 140.71
  Q 343.39 141.14 343.78 141.44
  Q 344.25 141.81 344.37 142.39
  Q 344.44 142.74 344.62 143.04
  L 347.39 147.73
  Q 347.57 148.03 347.62 147.69
  C 347.95 145.64 347.19 141.10 346.64 139.15
  Q 343.40 127.67 340.91 122.07
  C 329.81 97.06 307.31 76.21 279.92 70.91
  C 273.44 69.65 265.88 69.99 260.90 74.81
  A 1.50 1.50 0.0 0 1 258.69 74.68"
/>
<path stroke="#1551b0" vector-effect="non-scaling-stroke" d="
  M 206.38 129.90
  Q 205.14 131.53 205.33 133.14"
/>
<path stroke="#8080b0" vector-effect="non-scaling-stroke" d="
  M 205.33 133.14
  Q 203.89 135.39 203.55 136.24
  Q 194.89 158.11 196.26 181.47
  A 0.74 0.73 -0.8 0 0 196.98 182.16
  L 197.25 182.17
  A 0.46 0.46 0.0 0 0 197.72 181.75
  C 198.71 170.53 204.93 158.19 210.81 149.01
  C 213.93 144.14 218.73 137.66 219.16 134.13
  Q 221.04 118.57 229.09 105.39
  C 231.39 101.62 238.68 92.32 242.92 91.13
  Q 243.57 90.95 243.33 91.57
  Q 241.71 95.73 239.39 99.33
  C 230.75 112.70 225.90 127.74 226.08 143.74
  Q 226.09 144.84 226.25 145.59
  A 0.27 0.27 0.0 0 0 226.78 145.61
  C 227.80 141.73 230.93 139.08 232.85 136.72
  Q 234.66 134.48 236.77 132.44
  Q 237.34 131.88 237.15 132.66
  Q 235.97 137.46 235.06 142.32
  Q 232.69 154.93 234.95 167.66
  A 0.47 0.46 6.9 0 0 235.24 168.02
  Q 236.00 168.33 236.37 167.17
  C 239.49 157.61 246.33 150.03 252.22 142.10
  C 254.31 139.28 255.67 136.09 257.22 133.02
  Q 258.42 130.65 257.98 133.27
  L 257.15 138.23
  Q 256.77 140.49 258.44 138.91
  C 265.55 132.15 271.79 122.63 273.03 112.83
  A 0.59 0.59 0.0 0 1 274.07 112.53
  C 279.97 119.58 285.61 128.11 287.61 136.95
  C 289.39 144.86 289.04 153.66 288.21 161.30
  Q 288.20 161.36 288.34 161.42
  Q 288.42 161.46 288.50 161.49
  A 0.13 0.04 26.6 0 0 288.64 161.51
  C 296.55 141.39 293.09 117.76 282.01 99.67
  Q 278.55 94.03 275.72 88.80
  Q 274.83 87.15 276.34 88.26
  C 290.57 98.68 298.45 115.56 300.65 132.98
  Q 300.87 134.70 301.51 135.76
  C 309.97 149.71 316.46 161.16 320.55 176.06
  C 320.89 177.28 320.85 178.82 321.10 179.85
  Q 322.15 184.19 323.11 179.83
  Q 323.15 179.66 323.21 177.75
  C 323.75 161.08 320.49 141.81 311.40 127.57
  Q 310.38 125.98 311.98 126.99
  Q 320.62 132.43 328.31 139.95
  Q 330.24 141.83 332.28 143.72
  Q 332.80 144.21 332.59 143.52
  C 324.30 116.37 300.63 98.04 276.60 85.32
  C 270.47 82.08 263.88 88.77 260.39 92.60
  A 0.82 0.81 47.1 0 1 259.14 92.55
  C 256.32 88.97 249.55 82.66 244.76 84.74
  Q 231.35 90.56 217.87 101.35
  C 204.59 111.99 192.05 126.62 187.29 143.26
  A 0.11 0.10 73.9 0 0 187.47 143.36
  Q 196.40 133.02 208.30 126.24
  Q 209.04 125.81 208.69 126.59
  Q 207.87 128.39 206.38 129.90"
/>
<path stroke="#95d1ff" vector-effect="non-scaling-stroke" d="
  M 205.33 133.14
  Q 206.44 132.27 206.38 129.90"
/>
<path stroke="#8080b0" vector-effect="non-scaling-stroke" d="
  M 221.81 156.61
  Q 215.78 166.43 211.09 176.99
  Q 210.49 178.33 211.96 178.39
  Q 221.36 178.77 230.33 181.56
  A 0.35 0.34 17.1 0 0 230.76 181.34
  Q 230.89 180.94 230.66 180.54
  C 226.16 172.79 224.73 165.35 222.77 156.77
  Q 222.48 155.52 221.81 156.61"
/>
<path stroke="#8080b0" vector-effect="non-scaling-stroke" d="
  M 308.89 177.00
  C 306.47 171.55 303.38 166.13 300.61 160.85
  Q 299.57 158.88 297.99 156.91
  Q 297.14 155.86 296.96 157.20
  Q 295.33 169.49 288.81 180.00
  Q 287.49 182.13 289.87 181.33
  Q 298.71 178.36 308.04 178.31
  A 0.94 0.93 -12.2 0 0 308.89 177.00"
/>
<path stroke="#7f016b" vector-effect="non-scaling-stroke" d="
  M 163.80 179.51
  Q 162.72 180.67 163.22 182.50
  A 1.36 1.35 82.0 0 0 164.52 183.49
  L 175.77 183.48
  A 0.92 0.91 -0.6 0 0 176.69 182.55
  L 176.43 170.14"
/>
<path stroke="#8080b0" vector-effect="non-scaling-stroke" d="
  M 176.43 170.14
  Q 176.94 169.00 176.78 168.34
  Q 176.64 167.74 176.02 167.74
  L 164.28 167.85
  A 0.45 0.45 0.0 0 0 163.83 168.30
  L 163.80 179.51"
/>
<path stroke="#ff81ba" vector-effect="non-scaling-stroke" d="
  M 176.43 170.14
  L 166.66 170.11
  A 1.39 1.39 0.0 0 0 165.28 171.25
  L 163.80 179.51"
/>
<path stroke="#7f016b" vector-effect="non-scaling-stroke" d="
  M 343.18 170.07
  L 343.04 182.81
  A 0.61 0.61 0.0 0 0 343.66 183.42
  L 354.66 183.28
  Q 355.81 183.26 355.97 182.11
  Q 356.17 180.67 355.84 179.63"
/>
<path stroke="#8080b0" vector-effect="non-scaling-stroke" d="
  M 355.84 179.63
  L 355.76 168.61
  A 0.89 0.88 89.4 0 0 354.87 167.73
  L 343.59 167.90
  Q 343.08 167.91 343.03 168.41
  Q 342.95 169.28 343.18 170.07"
/>
<path stroke="#ff81ba" vector-effect="non-scaling-stroke" d="
  M 355.84 179.63
  Q 354.91 177.70 354.84 174.74
  Q 354.79 172.79 353.65 170.64
  Q 353.41 170.19 352.89 170.18
  L 343.18 170.07"
/>
<path stroke="#8080b0" vector-effect="non-scaling-stroke" d="
  M 245.87 181.20
  C 246.00 185.52 249.98 192.62 252.24 196.43
  Q 253.29 198.21 254.08 196.29
  L 255.11 193.81
  Q 255.87 191.97 254.48 190.54
  Q 250.18 186.11 246.94 180.88
  Q 245.81 179.04 245.87 181.20"
/>
<path stroke="#1c28af" vector-effect="non-scaling-stroke" d="
  M 213.17 208.84
  Q 212.69 206.46 213.48 204.60
  Q 214.61 201.95 212.45 203.87
  C 211.33 204.86 208.15 208.84 209.04 210.70"
/>
<path stroke="#8080b0" vector-effect="non-scaling-stroke" d="
  M 209.04 210.70
  L 208.49 211.06"
/>
<path stroke="#7f016b" vector-effect="non-scaling-stroke" d="
  M 208.49 211.06
  Q 207.78 211.29 207.51 210.93
  Q 205.30 208.05 202.45 210.19
  Q 202.04 210.49 202.44 210.80
  Q 203.65 211.74 203.66 213.26
  A 0.44 0.44 0.0 0 1 202.97 213.63
  Q 201.57 212.68 201.13 210.99
  A 0.27 0.27 0.0 0 0 200.81 210.80
  L 200.51 210.88
  A 0.23 0.23 0.0 0 0 200.37 211.22
  L 202.81 215.49"
/>
<path stroke="#8080b0" vector-effect="non-scaling-stroke" d="
  M 202.81 215.49
  Q 205.64 221.10 207.64 223.42
  Q 210.93 227.22 206.79 224.46
  Q 204.06 222.62 201.66 220.40
  Q 200.94 219.72 201.29 220.65
  C 204.55 229.26 213.52 237.24 222.91 235.59
  Q 226.54 234.95 223.56 237.13
  Q 216.32 242.40 207.30 240.72
  A 0.44 0.44 0.0 0 0 206.81 241.31
  Q 207.13 242.17 207.80 242.40"
/>
<path stroke="#7f016b" vector-effect="non-scaling-stroke" d="
  M 207.80 242.40
  C 207.95 245.20 210.71 248.36 212.38 250.42"
/>
<path stroke="#8080b0" vector-effect="non-scaling-stroke" d="
  M 212.38 250.42
  C 222.79 263.49 238.64 272.15 253.99 277.65
  C 260.72 280.06 266.79 277.49 273.48 274.43
  C 286.19 268.61 298.01 261.94 306.72 250.53"
/>
<path stroke="#7f016b" vector-effect="non-scaling-stroke" d="
  M 306.72 250.53
  L 311.82 242.45"
/>
<path stroke="#8080b0" vector-effect="non-scaling-stroke" d="
  M 311.82 242.45
  Q 312.43 241.94 312.68 241.27
  Q 312.89 240.69 312.29 240.82
  Q 302.79 242.80 295.62 236.59
  Q 294.41 235.55 296.00 235.72
  C 306.92 236.86 313.43 229.82 318.05 220.89
  Q 318.59 219.85 317.68 220.59
  L 312.86 224.55
  Q 311.44 225.71 312.38 224.14
  L 320.19 211.11
  Q 320.30 210.94 320.12 210.83
  L 319.86 210.69
  Q 319.66 210.57 319.52 210.76
  L 316.13 215.37"
/>
<path stroke="#7f016b" vector-effect="non-scaling-stroke" d="
  M 316.13 215.37
  Q 316.01 212.80 316.81 210.56
  Q 317.00 210.04 316.48 209.86
  Q 312.95 208.60 311.12 211.41"
/>
<path stroke="#8080b0" vector-effect="non-scaling-stroke" d="
  M 311.12 211.41
  L 309.97 210.71"
/>
<path stroke="#1c28af" vector-effect="non-scaling-stroke" d="
  M 309.97 210.71
  Q 310.33 206.27 306.84 203.23
  Q 306.38 202.83 306.38 203.44
  L 306.38 209.70"
/>
<path stroke="#8080b0" vector-effect="non-scaling-stroke" d="
  M 306.38 209.70
  Q 306.14 216.83 302.28 222.53
  C 297.97 228.90 289.36 230.21 284.65 223.82
  C 280.20 217.79 279.96 210.91 280.28 202.98
  Q 280.31 202.42 279.75 202.38
  Q 278.51 202.28 277.33 202.71
  Q 275.23 203.49 276.48 201.63
  C 281.03 194.94 289.28 192.31 297.12 192.20
  Q 298.78 192.17 302.22 189.15
  A 0.42 0.42 0.0 0 1 302.87 189.66
  L 302.09 191.18
  A 1.19 1.19 0.0 0 0 302.93 192.89
  L 309.06 194.05
  A 0.67 0.65 25.4 0 0 309.70 193.83
  L 312.67 190.27
  A 1.33 1.31 -33.7 0 0 312.92 189.07
  L 310.84 182.01
  A 1.29 1.28 78.2 0 0 309.46 181.10
  Q 297.18 182.53 285.28 185.85
  Q 284.82 185.98 284.49 186.33
  Q 277.95 193.31 270.27 198.71"
/>
<path stroke="#5a3575" vector-effect="non-scaling-stroke" d="
  M 270.27 198.71
  Q 268.02 199.11 266.41 201.20"
/>
<path stroke="#8080b0" vector-effect="non-scaling-stroke" d="
  M 266.41 201.20
  C 264.07 202.61 261.95 204.44 259.58 205.57
  Q 253.07 208.67 246.41 210.51
  Q 245.63 210.72 246.13 210.08
  C 248.64 206.84 251.42 204.66 252.32 200.40
  A 1.44 1.43 -71.1 0 0 251.54 198.80
  Q 242.28 194.34 235.43 186.76
  C 234.91 186.18 233.88 185.57 233.25 185.43
  Q 221.79 182.81 210.77 180.94
  A 1.78 1.78 0.0 0 0 208.78 182.14
  L 206.36 189.50
  A 0.64 0.62 -57.7 0 0 206.49 190.13
  L 209.83 193.79
  Q 210.23 194.22 210.80 194.08
  L 217.16 192.53
  A 0.85 0.85 0.0 0 0 217.79 191.56
  L 217.53 190.02
  A 0.31 0.31 0.0 0 1 218.07 189.76
  C 219.56 191.39 220.84 192.20 223.19 192.23
  C 232.88 192.32 240.32 194.98 244.82 203.92
  Q 245.12 204.52 244.53 204.20
  L 242.21 202.92
  Q 241.56 202.56 241.50 203.31
  C 241.39 204.88 243.15 205.70 243.62 207.27
  Q 243.86 208.09 243.17 207.59
  L 240.25 205.48
  A 0.35 0.34 -73.6 0 0 239.71 205.78
  C 240.09 213.84 237.35 228.70 226.49 228.03
  C 217.57 227.49 213.81 216.80 213.17 208.84"
/>
<path stroke="#dab5c4" vector-effect="non-scaling-stroke" d="
  M 266.41 201.20
  Q 268.69 200.44 270.27 198.71"
/>
<path stroke="#9ba8fe" vector-effect="non-scaling-stroke" d="
  M 306.38 209.70
  Q 308.05 209.63 309.97 210.71"
/>
<path stroke="#ff81ba" vector-effect="non-scaling-stroke" d="
  M 311.12 211.41
  Q 311.91 211.93 311.71 213.00
  Q 311.13 216.00 310.02 218.93
  Q 309.85 219.38 310.26 219.12
  L 316.13 215.37"
/>
<path stroke="#ff81ba" vector-effect="non-scaling-stroke" d="
  M 311.82 242.45
  Q 306.84 246.40 301.15 247.71
  Q 300.71 247.81 300.87 248.24
  Q 300.96 248.46 301.24 248.50
  Q 304.92 249.01 306.72 250.53"
/>
<path stroke="#ff81ba" vector-effect="non-scaling-stroke" d="
  M 212.38 250.42
  Q 215.28 249.12 217.48 248.89
  Q 221.00 248.50 217.61 247.25
  Q 213.18 245.61 207.80 242.40"
/>
<path stroke="#ff81ba" vector-effect="non-scaling-stroke" d="
  M 202.81 215.49
  Q 206.89 216.57 209.79 219.71
  Q 209.90 219.82 210.08 219.72
  A 0.20 0.19 61.4 0 0 210.15 219.46
  C 208.92 217.22 206.32 212.99 208.49 211.06"
/>
<path stroke="#9ba8fe" vector-effect="non-scaling-stroke" d="
  M 209.04 210.70
  L 213.17 208.84"
/>
<path stroke="#8080b0" vector-effect="non-scaling-stroke" d="
  M 201.83 199.22
  Q 199.88 195.46 198.66 191.50
  Q 197.25 186.89 197.26 191.71
  Q 197.27 195.30 198.03 200.88
  Q 198.19 202.07 199.30 201.60
  L 201.27 200.77
  A 1.12 1.12 0.0 0 0 201.83 199.22"
/>
<path stroke="#7f016b" vector-effect="non-scaling-stroke" d="
  M 321.40 190.52
  L 317.40 199.75
  A 0.89 0.89 0.0 0 0 317.97 200.95
  L 320.06 201.56
  A 0.86 0.86 0.0 0 0 321.15 200.84
  Q 321.80 195.73 321.77 190.59
  Q 321.76 189.70 321.40 190.52"
/>
<path stroke="#8080b0" vector-effect="non-scaling-stroke" d="
  M 165.61 203.23
  L 163.83 221.65
  Q 163.77 222.24 164.37 222.24
  L 171.34 222.25"
/>
<path stroke="#7f016b" vector-effect="non-scaling-stroke" d="
  M 171.34 222.25
  Q 173.59 222.78 176.35 222.42
  Q 176.80 222.37 176.80 221.91
  L 176.91 190.84
  A 0.70 0.70 0.0 0 0 176.21 190.14
  L 165.93 190.25
  A 0.63 0.63 0.0 0 0 165.30 190.90
  L 165.61 203.23"
/>
<path stroke="#ff81ba" vector-effect="non-scaling-stroke" d="
  M 171.34 222.25
  C 168.79 215.22 168.81 207.23 168.59 199.81
  Q 168.57 199.04 167.95 199.51
  Q 166.21 200.86 165.61 203.23"
/>
<path stroke="#8080b0" vector-effect="non-scaling-stroke" d="
  M 347.39 222.21
  L 355.60 222.23
  Q 356.17 222.23 356.09 221.66
  Q 354.00 208.08 353.72 193.77"
/>
<path stroke="#7f016b" vector-effect="non-scaling-stroke" d="
  M 353.72 193.77
  Q 354.20 192.31 353.88 190.77
  Q 353.77 190.26 353.25 190.26
  L 343.51 190.26
  Q 343.04 190.26 343.04 190.74
  L 342.97 222.01
  A 0.62 0.62 0.0 0 0 343.48 222.62
  Q 345.57 223.01 347.39 222.21"
/>
<path stroke="#ff81ba" vector-effect="non-scaling-stroke" d="
  M 353.72 193.77
  Q 351.96 194.83 351.68 198.00
  C 351.19 203.76 350.07 214.44 347.39 222.21"
/>
<path stroke="#8080b0" vector-effect="non-scaling-stroke" d="
  M 207.97 194.59
  L 206.69 193.02
  A 0.50 0.50 0.0 0 0 205.99 192.95
  L 205.79 193.12
  A 2.32 1.40 -39.3 0 0 204.88 195.67
  L 205.02 195.84
  A 2.32 1.40 -39.3 0 0 207.70 195.45
  L 207.90 195.29
  A 0.50 0.50 0.0 0 0 207.97 194.59"
/>
<path stroke="#80246b" vector-effect="non-scaling-stroke" d="
  M 313.68 194.04
  Q 313.60 193.65 313.21 193.65
  Q 312.32 193.66 311.98 194.57
  Q 311.81 195.03 312.02 195.41
  Q 312.33 195.97 313.03 196.00
  A 0.65 0.64 5.5 0 0 313.69 195.46
  Q 313.82 194.74 313.68 194.04"
/>
<path stroke="#80246b" vector-effect="non-scaling-stroke" d="
  M 137.46 224.21
  C 129.00 237.27 128.71 255.88 141.23 266.41
  A 0.44 0.44 0.0 0 0 141.93 266.23
  C 149.66 245.63 153.22 224.91 157.31 203.51
  Q 157.62 201.89 156.35 202.94
  Q 145.39 211.99 137.46 224.21"
/>
<path stroke="#80246b" vector-effect="non-scaling-stroke" d="
  M 362.30 203.41
  C 365.49 224.29 369.87 246.39 377.81 266.08
  A 0.55 0.55 0.0 0 0 378.70 266.27
  C 400.48 245.24 381.46 217.46 362.82 203.10
  Q 362.18 202.61 362.30 203.41"
/>
<path stroke="#1c28af" vector-effect="non-scaling-stroke" d="
  M 334.93 222.54
  Q 333.32 224.48 331.99 226.39
  C 329.09 230.56 326.05 233.66 321.62 236.15
  A 2.35 2.33 -11.6 0 0 320.43 237.94
  L 319.30 248.53"
/>
<path stroke="#8080b0" vector-effect="non-scaling-stroke" d="
  M 319.30 248.53
  C 319.04 252.70 319.27 256.92 318.73 260.81
  C 317.16 272.19 315.21 282.92 310.87 293.63
  C 307.32 302.39 301.22 313.14 298.11 321.31
  Q 294.07 331.92 292.35 342.84
  Q 291.87 345.90 293.07 343.05
  C 300.36 325.76 314.30 312.10 323.95 295.71
  Q 335.46 276.18 335.88 251.99
  Q 336.23 231.77 335.78 221.24
  Q 335.75 220.54 335.32 221.10
  Q 334.80 221.78 334.93 222.54"
/>
<path stroke="#9ba8fe" vector-effect="non-scaling-stroke" d="
  M 319.30 248.53
  Q 328.82 242.57 333.13 232.13
  Q 335.06 227.46 334.93 222.54"
/>
<path stroke="#1c28af" vector-effect="non-scaling-stroke" d="
  M 199.66 248.49
  L 199.36 238.36
  A 1.13 1.11 -76.2 0 0 198.80 237.42
  Q 191.57 233.32 185.82 224.93"
/>
<path stroke="#8080b0" vector-effect="non-scaling-stroke" d="
  M 185.82 224.93
  Q 185.65 223.76 184.27 221.89
  Q 183.77 221.20 183.77 222.05
  C 183.70 236.83 182.85 259.35 187.47 276.91
  C 191.16 290.95 199.53 302.99 208.82 314.68
  Q 219.62 328.28 226.67 343.32
  Q 227.25 344.57 227.09 343.20
  Q 225.97 333.18 222.57 323.61
  C 219.91 316.14 214.51 306.16 211.36 299.39
  C 203.67 282.90 200.47 266.42 199.66 248.49"
/>
<path stroke="#9ba8fe" vector-effect="non-scaling-stroke" d="
  M 185.82 224.93
  Q 185.75 239.67 199.66 248.49"
/>
<path stroke="#8080b0" vector-effect="non-scaling-stroke" d="
  M 168.61 231.90
  Q 166.33 238.62 164.12 245.44
  C 158.59 262.47 151.30 278.86 142.97 294.70
  C 136.62 306.78 128.10 320.20 120.67 332.95"
/>
<path stroke="#80246b" vector-effect="non-scaling-stroke" d="
  M 120.67 332.95
  C 105.95 355.40 92.00 387.54 112.57 411.80
  Q 114.71 414.32 113.57 411.22
  C 107.77 395.54 111.22 374.66 117.78 359.75
  Q 121.01 352.40 124.85 345.35"
/>
<path stroke="#7d2847" vector-effect="non-scaling-stroke" d="
  M 124.85 345.35
  C 133.15 330.77 143.21 314.43 149.85 301.62
  C 155.42 290.87 161.32 279.75 165.27 268.29"
/>
<path stroke="#742092" vector-effect="non-scaling-stroke" d="
  M 165.27 268.29
  Q 167.07 264.32 168.71 260.44
  Q 168.88 260.04 168.95 259.99
  Q 169.63 259.56 169.59 260.36
  C 168.82 276.13 170.25 290.60 181.50 303.18
  Q 183.30 305.19 185.26 306.47
  A 0.33 0.33 0.0 0 0 185.72 306.03
  C 179.46 295.43 175.75 285.18 175.17 272.34
  Q 174.26 252.36 175.31 232.10
  Q 175.34 231.57 174.81 231.59
  L 168.61 231.90"
/>
<path stroke="#f14878" vector-effect="non-scaling-stroke" d="
  M 165.27 268.29
  Q 165.91 262.54 167.96 257.14
  C 168.78 254.98 168.64 253.45 168.67 251.24
  Q 168.69 249.44 169.09 246.79
  Q 169.90 241.37 168.68 235.86"
/>
<path stroke="#f4a0e1" vector-effect="non-scaling-stroke" d="
  M 168.68 235.86
  Q 168.30 234.52 169.42 232.40
  Q 169.59 232.07 168.61 231.90"
/>
<path stroke="#fda896" vector-effect="non-scaling-stroke" d="
  M 168.68 235.86
  C 166.11 243.76 163.88 251.89 160.93 259.17
  C 153.66 277.13 145.27 294.71 135.14 311.24
  C 130.58 318.66 126.58 325.61 121.29 333.36"
/>
<path stroke="#ffa4ba" vector-effect="non-scaling-stroke" d="
  M 121.29 333.36
  Q 120.63 333.36 120.67 332.95"
/>
<path stroke="#fd4c51" vector-effect="non-scaling-stroke" d="
  M 124.85 345.35
  Q 124.45 344.48 124.98 343.75
  Q 125.29 343.33 125.11 342.85
  Q 124.94 342.40 124.52 342.13
  Q 124.17 341.90 124.17 341.48
  L 124.16 340.78
  Q 124.16 340.39 123.77 340.34
  Q 123.60 340.31 123.43 340.35
  Q 123.00 340.44 122.71 340.10
  Q 121.56 338.75 119.72 338.59
  A 0.60 0.60 0.0 0 1 119.32 337.59
  L 120.32 336.44
  Q 120.61 336.11 120.63 335.67
  Q 120.69 334.44 121.29 333.36"
/>
<path stroke="#802b60" vector-effect="non-scaling-stroke" d="
  M 351.92 262.06
  C 359.13 281.85 366.72 297.29 376.36 313.74
  Q 384.75 328.06 392.99 342.47
  C 404.82 363.18 414.07 388.87 405.60 412.00
  Q 404.50 415.01 406.52 412.52
  C 417.70 398.77 419.91 381.77 414.52 365.00
  Q 409.46 349.31 400.14 335.26"
/>
<path stroke="#8080b0" vector-effect="non-scaling-stroke" d="
  M 400.14 335.26
  Q 394.72 325.37 388.92 315.90
  Q 381.64 304.02 378.78 298.66
  C 370.11 282.46 361.94 265.43 356.18 247.95
  Q 353.63 240.21 351.30 232.32
  A 1.19 1.18 -7.1 0 0 350.20 231.47
  Q 349.99 231.46 349.74 231.69"
/>
<path stroke="#742092" vector-effect="non-scaling-stroke" d="
  M 349.74 231.69
  L 344.97 231.52
  A 0.60 0.60 0.0 0 0 344.34 232.15
  C 345.49 256.68 347.96 282.98 334.69 304.68
  Q 332.96 307.52 335.63 305.54
  C 348.22 296.24 351.61 274.72 350.08 260.36
  Q 350.04 259.96 350.44 259.72
  Q 350.71 259.57 350.84 259.85
  L 351.92 262.06"
/>
<path stroke="#f4a0e1" vector-effect="non-scaling-stroke" d="
  M 349.74 231.69
  Q 351.15 234.82 351.18 237.05"
/>
<path stroke="#f44b90" vector-effect="non-scaling-stroke" d="
  M 351.18 237.05
  Q 349.94 240.25 351.08 243.96
  Q 351.57 245.57 351.57 247.14
  C 351.56 249.21 352.03 251.01 352.10 253.13
  C 352.19 256.23 352.62 258.59 351.92 262.06"
/>
<path stroke="#ffabaf" vector-effect="non-scaling-stroke" d="
  M 400.14 335.26
  Q 390.22 321.49 381.89 306.87
  C 369.22 284.64 358.45 261.63 351.18 237.05"
/>
<path stroke="#8080b0" vector-effect="non-scaling-stroke" d="
  M 234.66 328.21
  L 239.47 339.47
  A 0.56 0.56 0.0 0 0 240.24 339.74
  Q 259.82 329.32 279.48 339.53
  Q 279.92 339.76 280.11 339.30
  L 284.90 328.11"
/>
<path stroke="#7f016b" vector-effect="non-scaling-stroke" d="
  M 284.90 328.11
  Q 288.14 319.18 293.79 310.31
  A 0.64 0.64 0.0 0 0 293.38 309.34
  Q 285.58 307.67 282.60 301.19
  Q 281.23 298.24 281.19 292.13
  Q 281.15 286.25 281.07 280.51
  A 0.60 0.60 0.0 0 0 280.16 280.00
  Q 275.27 282.92 270.20 285.68
  C 258.45 292.10 250.18 286.81 239.51 280.17
  A 0.66 0.66 0.0 0 0 238.50 280.73
  C 238.47 287.22 239.30 296.66 236.69 301.85
  Q 233.78 307.63 226.53 309.40
  A 0.75 0.75 0.0 0 0 226.07 310.52
  Q 230.89 318.33 233.92 327.03
  Q 234.08 327.51 234.66 328.21"
/>
<path stroke="#ff81ba" vector-effect="non-scaling-stroke" d="
  M 284.90 328.11
  Q 278.28 323.65 270.26 321.01
  C 257.31 316.76 247.43 320.96 235.08 327.21
  Q 234.65 327.43 234.66 327.92
  L 234.66 328.21"
/>
<path stroke="#8080b0" vector-effect="non-scaling-stroke" d="
  M 191.56 312.86
  L 187.91 314.22
  Q 187.36 314.43 187.62 314.95
  Q 188.56 316.82 190.18 319.07
  C 198.92 331.17 207.75 341.03 220.82 348.78
  Q 221.38 349.11 221.16 348.50
  Q 219.89 345.06 217.61 342.74"
/>
<path stroke="#1551b0" vector-effect="non-scaling-stroke" d="
  M 217.61 342.74
  C 217.51 338.61 209.07 328.29 206.35 324.69
  C 202.96 320.22 200.29 315.95 197.45 311.39
  Q 197.15 310.92 196.63 311.10
  L 191.56 312.86"
/>
<path stroke="#95d1ff" vector-effect="non-scaling-stroke" d="
  M 217.61 342.74
  Q 208.00 334.82 200.44 325.04
  Q 195.85 319.11 191.56 312.86"
/>
<path stroke="#8080b0" vector-effect="non-scaling-stroke" d="
  M 300.50 345.24
  L 298.84 348.08
  Q 298.21 349.18 299.30 348.53
  C 313.92 339.93 321.74 328.46 332.24 314.99
  Q 332.61 314.51 332.05 314.31
  L 327.90 312.81"
/>
<path stroke="#1551b0" vector-effect="non-scaling-stroke" d="
  M 327.90 312.81
  L 323.47 311.45
  A 1.38 1.38 0.0 0 0 321.92 312.00
  Q 311.50 327.36 301.10 342.88
  Q 300.62 343.59 300.50 345.24"
/>
<path stroke="#95d1ff" vector-effect="non-scaling-stroke" d="
  M 327.90 312.81
  Q 316.10 329.64 311.47 334.22
  Q 305.97 339.68 300.50 345.24"
/>
<path stroke="#8080b0" vector-effect="non-scaling-stroke" d="
  M 254.95 373.93
  Q 255.21 374.45 254.65 374.26
  C 230.92 365.92 207.07 351.38 191.10 331.64
  Q 186.76 326.27 180.57 317.18
  Q 180.38 316.91 180.06 317.01
  L 174.19 318.93
  A 0.19 0.19 0.0 0 0 174.10 319.22
  Q 186.19 335.91 190.02 340.25
  C 207.87 360.45 233.37 374.49 258.75 382.38
  Q 259.75 382.68 260.74 382.37
  C 288.40 373.60 313.12 360.03 331.91 337.42
  Q 337.17 331.09 345.37 319.53
  A 0.36 0.36 0.0 0 0 345.20 318.98
  L 339.56 316.96
  Q 339.08 316.79 338.80 317.21
  Q 334.25 323.95 328.90 330.90
  C 313.01 351.54 289.67 365.95 265.13 373.91
  A 0.28 0.28 0.0 0 1 264.79 373.52
  L 272.44 358.25
  Q 272.65 357.83 272.24 357.60
  Q 259.85 350.62 247.31 357.51
  A 0.32 0.32 0.0 0 0 247.17 357.93
  L 254.95 373.93"
/>
<path stroke="#8080b0" vector-effect="non-scaling-stroke" d="
  M 276.12 346.44
  C 264.41 339.60 255.12 341.09 243.03 346.44
  Q 242.50 346.68 242.74 347.21
  L 244.15 350.26
  Q 244.39 350.76 244.89 350.52
  C 254.65 345.84 264.58 344.92 274.26 350.62
  A 0.93 0.92 -62.5 0 0 275.57 350.20
  L 276.60 347.94
  Q 277.04 346.98 276.12 346.44"
/>
<path stroke="#7f016b" vector-effect="non-scaling-stroke" d="
  M 234.49 394.57
  L 243.25 397.53
  Q 243.45 397.60 243.59 397.44
  L 250.31 389.88
  Q 250.45 389.72 250.24 389.65
  Q 227.61 382.13 208.10 368.86
  Q 205.49 367.08 202.70 365.49"
/>
<path stroke="#802b60" vector-effect="non-scaling-stroke" d="
  M 202.70 365.49
  L 196.80 360.58
  Q 195.10 359.16 195.80 361.26
  L 202.97 382.57
  A 1.81 1.77 -87.5 0 0 203.94 383.65
  Q 218.87 390.21 234.49 394.57"
/>
<path stroke="#ff2c6a" vector-effect="non-scaling-stroke" d="
  M 202.70 365.49
  Q 203.63 367.05 204.40 368.65
  Q 205.25 370.44 206.36 371.60
  C 214.91 380.52 224.55 386.68 234.69 393.52
  Q 235.12 393.81 234.80 394.20
  L 234.49 394.57"
/>
<path stroke="#7f016b" vector-effect="non-scaling-stroke" d="
  M 320.81 362.17
  Q 311.07 369.67 301.20 375.44
  Q 286.16 384.25 268.90 389.53
  Q 268.65 389.61 268.83 389.81
  L 275.76 397.43
  Q 275.94 397.62 276.19 397.55
  L 286.71 394.42"
/>
<path stroke="#802b60" vector-effect="non-scaling-stroke" d="
  M 286.71 394.42
  Q 299.88 390.44 312.37 384.88
  C 313.88 384.20 316.37 383.30 316.87 381.79
  Q 320.33 371.23 323.91 360.98
  Q 324.49 359.30 323.09 360.39
  L 320.81 362.17"
/>
<path stroke="#ff2c6a" vector-effect="non-scaling-stroke" d="
  M 286.71 394.42
  Q 286.01 393.58 286.94 393.01
  C 289.32 391.58 291.24 389.18 293.63 387.53
  C 305.03 379.66 313.45 373.47 320.81 362.17"
/>
<path stroke="#7f016b" vector-effect="non-scaling-stroke" d="
  M 249.64 408.30
  C 252.74 418.39 265.19 418.36 269.62 409.00"
/>
<path stroke="#8080b0" vector-effect="non-scaling-stroke" d="
  M 269.62 409.00
  Q 271.53 402.51 266.76 397.98
  C 259.04 390.63 246.80 397.98 249.64 408.30"
/>
<path stroke="#ff81ba" vector-effect="non-scaling-stroke" d="
  M 269.62 409.00
  Q 269.12 409.03 268.77 408.03"
/>
<path stroke="#fda896" vector-effect="non-scaling-stroke" d="
  M 268.77 408.03
  C 269.76 394.33 250.12 394.00 250.40 407.48"
/>
<path stroke="#ff81ba" vector-effect="non-scaling-stroke" d="
  M 250.40 407.48
  Q 250.26 408.32 249.64 408.30"
/>
<path stroke="#fc2951" vector-effect="non-scaling-stroke" d="
  M 268.77 408.03
  Q 268.90 408.58 268.37 409.01
  Q 261.26 414.76 253.53 410.50
  C 252.26 409.81 251.39 408.56 250.40 407.48"
/>
<path stroke="#dab5c4" vector-effect="non-scaling-stroke" d="
  M 277.7945 206.8638
  A 1.30 0.39 20.9 0 0 276.7191 206.0357
  A 1.30 0.39 20.9 0 0 275.3655 205.9362
  A 1.30 0.39 20.9 0 0 276.4409 206.7643
  A 1.30 0.39 20.9 0 0 277.7945 206.8638"
/>
</g>
<path fill="#ffffff" d="
  M 0.00 0.00
  L 502.00 0.00
  L 502.00 498.00
  L 0.00 498.00
  L 0.00 0.00
  Z
  M 169.48 116.07
  Q 169.25 116.19 169.03 116.19
  Q 168.69 116.19 168.42 116.41
  C 163.93 120.09 159.13 123.50 154.89 127.32
  Q 152.04 129.89 149.18 132.45
  Q 127.24 152.13 112.96 177.91
  C 89.89 219.56 87.20 271.97 105.18 316.22
  Q 107.54 322.04 109.81 327.76
  C 92.80 353.75 82.96 384.39 100.48 413.28
  Q 106.97 423.98 116.65 432.28
  Q 121.53 436.48 129.07 440.63
  Q 129.89 441.08 130.06 440.16
  Q 137.20 401.75 145.41 362.99
  Q 147.68 352.30 149.31 346.75
  C 151.87 337.99 157.81 333.34 165.99 328.82
  L 179.63 348.08
  Q 180.11 349.07 180.36 350.27
  Q 183.65 366.06 186.95 381.83
  Q 189.08 392.03 191.47 396.21
  Q 198.15 407.93 213.22 409.54
  Q 224.93 410.79 236.30 410.79
  Q 237.84 410.79 236.47 411.50
  Q 220.79 419.65 210.70 434.18
  C 203.35 434.25 195.52 434.40 190.57 431.18
  Q 181.81 425.49 176.36 413.76
  L 176.25 356.88
  Q 176.24 352.58 171.96 352.16
  L 170.95 352.06
  A 3.12 3.12 0.0 0 0 167.52 355.16
  L 167.42 389.93
  Q 162.47 381.68 159.58 373.86
  A 0.34 0.34 0.0 0 0 158.93 373.94
  L 149.80 442.39
  Q 149.72 442.98 150.31 443.06
  C 158.24 444.16 165.67 443.44 173.18 443.55
  C 183.19 443.69 192.40 443.58 202.00 443.83
  Q 202.96 443.85 206.53 442.85
  L 241.21 442.63
  L 250.61 442.72
  L 268.76 442.59
  Q 271.35 442.63 274.50 442.54
  Q 293.29 442.04 312.03 442.86
  C 314.76 442.85 317.43 443.55 319.99 443.49
  C 327.77 443.28 335.47 443.79 343.28 443.50
  C 348.76 443.29 355.41 443.75 359.67 443.72
  C 367.72 443.66 375.69 441.83 383.00 442.40
  Q 387.26 442.74 390.16 440.92
  C 410.34 431.12 426.49 408.86 428.21 386.25
  Q 429.18 373.59 425.32 360.45
  Q 421.60 347.76 418.40 342.09
  Q 414.21 334.68 410.13 327.30
  C 430.09 284.01 431.71 230.77 411.55 187.26
  C 403.54 169.97 393.13 154.95 379.99 141.20
  C 375.29 136.28 369.29 131.41 363.88 126.56
  C 360.22 123.27 356.17 120.69 352.52 117.47
  Q 351.20 116.30 349.64 115.99
  C 338.00 89.13 314.02 66.50 284.79 60.60
  C 275.47 58.71 268.32 57.89 260.69 62.73
  A 1.28 1.28 0.0 0 1 259.34 62.75
  Q 252.86 58.80 245.25 59.32
  C 212.84 61.51 185.54 83.73 171.20 113.51
  Q 170.73 114.50 169.48 116.07
  Z"
/>
<path fill="#000061" d="
  M 349.64 115.99
  L 351.19 118.43
  C 355.55 130.90 357.24 140.98 358.64 152.91
  A 0.97 0.97 0.0 0 0 359.29 153.72
  Q 369.77 157.37 379.45 152.35
  Q 380.41 151.85 379.79 152.74
  Q 372.92 162.64 360.78 163.86
  A 0.49 0.49 0.0 0 0 360.33 164.37
  Q 360.51 169.33 360.70 174.31
  C 360.81 177.20 361.95 179.23 364.04 180.96
  C 374.15 189.38 384.05 181.71 389.34 172.51
  Q 389.95 171.45 390.10 172.67
  Q 391.33 182.77 384.46 189.00
  C 379.44 193.54 371.93 195.19 365.56 192.94
  Q 362.58 191.89 365.03 193.88
  C 381.93 207.62 397.84 224.70 396.58 248.11
  Q 394.14 264.42 381.52 274.03
  A 0.81 0.81 0.0 0 0 381.26 274.99
  C 388.78 292.73 398.58 309.68 409.16 325.74
  L 410.13 327.30
  Q 414.21 334.68 418.40 342.09
  Q 421.60 347.76 425.32 360.45
  Q 429.18 373.59 428.21 386.25
  C 426.49 408.86 410.34 431.12 390.16 440.92
  L 389.00 436.80
  C 383.81 409.88 378.42 383.03 372.70 356.20
  Q 370.39 345.36 367.89 341.22
  Q 363.10 333.26 353.52 329.09
  Q 352.68 328.34 352.00 328.30
  Q 351.44 328.26 350.78 329.12
  Q 344.79 336.89 338.93 344.69
  C 336.30 347.64 333.08 350.36 331.96 354.29
  Q 327.88 368.61 323.23 382.77
  C 322.40 385.32 323.07 387.22 320.18 388.67
  Q 300.49 398.51 278.88 403.46
  A 1.93 1.93 0.0 0 0 277.39 405.47
  Q 277.75 410.45 274.89 414.46
  A 0.49 0.48 31.7 0 0 275.06 415.17
  Q 283.98 419.77 289.01 428.51
  Q 289.50 429.36 288.68 428.81
  Q 280.69 423.33 271.31 420.81
  A 0.50 0.50 0.0 0 0 270.71 421.47
  L 277.95 440.49
  A 1.79 1.77 78.9 0 0 279.64 441.64
  Q 287.34 441.52 295.13 441.23
  C 299.91 441.04 304.68 441.76 309.57 441.93
  C 310.54 441.97 311.31 441.60 312.17 441.24
  L 312.68 442.22
  Q 312.87 442.59 312.46 442.67
  Q 312.16 442.73 312.03 442.86
  Q 293.29 442.04 274.50 442.54
  Q 271.35 442.63 268.76 442.59
  L 263.24 424.07
  A 1.12 1.11 -7.5 0 0 262.20 423.28
  L 257.39 423.15
  Q 256.78 423.13 256.59 423.71
  L 250.61 442.72
  L 241.21 442.63
  Q 244.53 431.37 249.36 421.31
  A 0.47 0.47 0.0 0 0 248.82 420.65
  Q 239.76 422.98 232.01 428.18
  Q 230.75 429.02 231.46 427.68
  Q 235.81 419.46 244.16 415.39
  A 0.50 0.49 61.0 0 0 244.36 414.69
  Q 241.48 410.13 241.88 404.73
  A 1.07 1.06 -81.8 0 0 241.06 403.62
  Q 219.96 398.81 200.22 389.53
  C 198.69 388.81 198.00 388.88 197.47 387.07
  Q 193.36 373.02 188.99 359.04
  C 187.94 355.69 187.95 352.95 185.55 350.06
  Q 183.09 347.08 180.54 344.09
  Q 173.99 336.89 168.74 328.64
  Q 168.48 328.22 167.99 328.17
  Q 166.66 328.04 165.99 328.82
  C 157.81 333.34 151.87 337.99 149.31 346.75
  Q 147.68 352.30 145.41 362.99
  Q 137.20 401.75 130.06 440.16
  Q 129.89 441.08 129.07 440.63
  Q 121.53 436.48 116.65 432.28
  Q 106.97 423.98 100.48 413.28
  C 82.96 384.39 92.80 353.75 109.81 327.76
  L 111.70 324.33
  C 121.16 308.21 130.55 292.58 138.18 275.53
  A 1.35 1.34 31.1 0 0 137.78 273.92
  C 126.36 264.97 121.06 251.69 123.44 237.46
  C 126.29 220.42 140.99 204.60 153.83 194.25
  Q 156.87 191.80 153.19 193.11
  Q 145.39 195.90 137.51 190.69
  Q 132.37 187.30 130.23 181.80
  Q 128.97 176.61 129.66 173.06
  Q 129.90 171.85 130.53 172.91
  C 133.64 178.18 139.45 184.12 145.77 184.46
  C 150.36 184.69 155.73 182.40 157.87 178.10
  C 159.45 174.92 158.84 168.95 158.79 165.13
  Q 158.78 164.09 157.75 163.93
  Q 146.53 162.13 140.47 152.65
  A 0.18 0.18 0.0 0 1 140.70 152.39
  Q 150.33 157.35 160.52 153.60
  A 0.96 0.95 82.3 0 0 161.14 152.78
  Q 162.23 138.33 166.83 124.44
  Q 167.88 121.28 168.77 117.91
  L 169.48 116.07
  Q 170.73 114.50 171.20 113.51
  C 185.54 83.73 212.84 61.51 245.25 59.32
  Q 252.86 58.80 259.34 62.75
  A 1.28 1.28 0.0 0 0 260.69 62.73
  C 268.32 57.89 275.47 58.71 284.79 60.60
  C 314.02 66.50 338.00 89.13 349.64 115.99
  Z
  M 258.69 74.68
  C 257.51 73.23 253.59 71.26 251.74 71.01
  Q 240.20 69.49 229.04 73.74
  C 200.11 84.77 180.72 108.67 173.27 138.40
  Q 172.01 143.47 171.98 147.97
  Q 171.97 149.36 172.59 148.11
  C 177.69 137.89 184.03 128.44 190.13 118.63
  Q 194.51 111.59 205.12 99.87
  Q 214.55 89.46 229.07 81.35
  C 235.51 77.75 249.80 72.66 256.89 75.99
  Q 258.75 76.86 259.80 77.30
  A 1.16 1.15 -46.5 0 0 260.77 77.27
  C 268.69 73.26 277.68 75.29 285.48 78.85
  C 309.28 89.69 322.44 107.83 337.03 130.26
  Q 339.46 133.99 343.15 140.71
  Q 343.39 141.14 343.78 141.44
  Q 344.25 141.81 344.37 142.39
  Q 344.44 142.74 344.62 143.04
  L 347.39 147.73
  Q 347.57 148.03 347.62 147.69
  C 347.95 145.64 347.19 141.10 346.64 139.15
  Q 343.40 127.67 340.91 122.07
  C 329.81 97.06 307.31 76.21 279.92 70.91
  C 273.44 69.65 265.88 69.99 260.90 74.81
  A 1.50 1.50 0.0 0 1 258.69 74.68
  Z
  M 206.38 129.90
  Q 205.14 131.53 205.33 133.14
  Q 203.89 135.39 203.55 136.24
  Q 194.89 158.11 196.26 181.47
  A 0.74 0.73 -0.8 0 0 196.98 182.16
  L 197.25 182.17
  A 0.46 0.46 0.0 0 0 197.72 181.75
  C 198.71 170.53 204.93 158.19 210.81 149.01
  C 213.93 144.14 218.73 137.66 219.16 134.13
  Q 221.04 118.57 229.09 105.39
  C 231.39 101.62 238.68 92.32 242.92 91.13
  Q 243.57 90.95 243.33 91.57
  Q 241.71 95.73 239.39 99.33
  C 230.75 112.70 225.90 127.74 226.08 143.74
  Q 226.09 144.84 226.25 145.59
  A 0.27 0.27 0.0 0 0 226.78 145.61
  C 227.80 141.73 230.93 139.08 232.85 136.72
  Q 234.66 134.48 236.77 132.44
  Q 237.34 131.88 237.15 132.66
  Q 235.97 137.46 235.06 142.32
  Q 232.69 154.93 234.95 167.66
  A 0.47 0.46 6.9 0 0 235.24 168.02
  Q 236.00 168.33 236.37 167.17
  C 239.49 157.61 246.33 150.03 252.22 142.10
  C 254.31 139.28 255.67 136.09 257.22 133.02
  Q 258.42 130.65 257.98 133.27
  L 257.15 138.23
  Q 256.77 140.49 258.44 138.91
  C 265.55 132.15 271.79 122.63 273.03 112.83
  A 0.59 0.59 0.0 0 1 274.07 112.53
  C 279.97 119.58 285.61 128.11 287.61 136.95
  C 289.39 144.86 289.04 153.66 288.21 161.30
  Q 288.20 161.36 288.34 161.42
  Q 288.42 161.46 288.50 161.49
  A 0.13 0.04 26.6 0 0 288.64 161.51
  C 296.55 141.39 293.09 117.76 282.01 99.67
  Q 278.55 94.03 275.72 88.80
  Q 274.83 87.15 276.34 88.26
  C 290.57 98.68 298.45 115.56 300.65 132.98
  Q 300.87 134.70 301.51 135.76
  C 309.97 149.71 316.46 161.16 320.55 176.06
  C 320.89 177.28 320.85 178.82 321.10 179.85
  Q 322.15 184.19 323.11 179.83
  Q 323.15 179.66 323.21 177.75
  C 323.75 161.08 320.49 141.81 311.40 127.57
  Q 310.38 125.98 311.98 126.99
  Q 320.62 132.43 328.31 139.95
  Q 330.24 141.83 332.28 143.72
  Q 332.80 144.21 332.59 143.52
  C 324.30 116.37 300.63 98.04 276.60 85.32
  C 270.47 82.08 263.88 88.77 260.39 92.60
  A 0.82 0.81 47.1 0 1 259.14 92.55
  C 256.32 88.97 249.55 82.66 244.76 84.74
  Q 231.35 90.56 217.87 101.35
  C 204.59 111.99 192.05 126.62 187.29 143.26
  A 0.11 0.10 73.9 0 0 187.47 143.36
  Q 196.40 133.02 208.30 126.24
  Q 209.04 125.81 208.69 126.59
  Q 207.87 128.39 206.38 129.90
  Z
  M 221.81 156.61
  Q 215.78 166.43 211.09 176.99
  Q 210.49 178.33 211.96 178.39
  Q 221.36 178.77 230.33 181.56
  A 0.35 0.34 17.1 0 0 230.76 181.34
  Q 230.89 180.94 230.66 180.54
  C 226.16 172.79 224.73 165.35 222.77 156.77
  Q 222.48 155.52 221.81 156.61
  Z
  M 308.89 177.00
  C 306.47 171.55 303.38 166.13 300.61 160.85
  Q 299.57 158.88 297.99 156.91
  Q 297.14 155.86 296.96 157.20
  Q 295.33 169.49 288.81 180.00
  Q 287.49 182.13 289.87 181.33
  Q 298.71 178.36 308.04 178.31
  A 0.94 0.93 -12.2 0 0 308.89 177.00
  Z
  M 163.80 179.51
  Q 162.72 180.67 163.22 182.50
  A 1.36 1.35 82.0 0 0 164.52 183.49
  L 175.77 183.48
  A 0.92 0.91 -0.6 0 0 176.69 182.55
  L 176.43 170.14
  Q 176.94 169.00 176.78 168.34
  Q 176.64 167.74 176.02 167.74
  L 164.28 167.85
  A 0.45 0.45 0.0 0 0 163.83 168.30
  L 163.80 179.51
  Z
  M 343.18 170.07
  L 343.04 182.81
  A 0.61 0.61 0.0 0 0 343.66 183.42
  L 354.66 183.28
  Q 355.81 183.26 355.97 182.11
  Q 356.17 180.67 355.84 179.63
  L 355.76 168.61
  A 0.89 0.88 89.4 0 0 354.87 167.73
  L 343.59 167.90
  Q 343.08 167.91 343.03 168.41
  Q 342.95 169.28 343.18 170.07
  Z
  M 245.87 181.20
  C 246.00 185.52 249.98 192.62 252.24 196.43
  Q 253.29 198.21 254.08 196.29
  L 255.11 193.81
  Q 255.87 191.97 254.48 190.54
  Q 250.18 186.11 246.94 180.88
  Q 245.81 179.04 245.87 181.20
  Z
  M 213.17 208.84
  Q 212.69 206.46 213.48 204.60
  Q 214.61 201.95 212.45 203.87
  C 211.33 204.86 208.15 208.84 209.04 210.70
  L 208.49 211.06
  Q 207.78 211.29 207.51 210.93
  Q 205.30 208.05 202.45 210.19
  Q 202.04 210.49 202.44 210.80
  Q 203.65 211.74 203.66 213.26
  A 0.44 0.44 0.0 0 1 202.97 213.63
  Q 201.57 212.68 201.13 210.99
  A 0.27 0.27 0.0 0 0 200.81 210.80
  L 200.51 210.88
  A 0.23 0.23 0.0 0 0 200.37 211.22
  L 202.81 215.49
  Q 205.64 221.10 207.64 223.42
  Q 210.93 227.22 206.79 224.46
  Q 204.06 222.62 201.66 220.40
  Q 200.94 219.72 201.29 220.65
  C 204.55 229.26 213.52 237.24 222.91 235.59
  Q 226.54 234.95 223.56 237.13
  Q 216.32 242.40 207.30 240.72
  A 0.44 0.44 0.0 0 0 206.81 241.31
  Q 207.13 242.17 207.80 242.40
  C 207.95 245.20 210.71 248.36 212.38 250.42
  C 222.79 263.49 238.64 272.15 253.99 277.65
  C 260.72 280.06 266.79 277.49 273.48 274.43
  C 286.19 268.61 298.01 261.94 306.72 250.53
  L 311.82 242.45
  Q 312.43 241.94 312.68 241.27
  Q 312.89 240.69 312.29 240.82
  Q 302.79 242.80 295.62 236.59
  Q 294.41 235.55 296.00 235.72
  C 306.92 236.86 313.43 229.82 318.05 220.89
  Q 318.59 219.85 317.68 220.59
  L 312.86 224.55
  Q 311.44 225.71 312.38 224.14
  L 320.19 211.11
  Q 320.30 210.94 320.12 210.83
  L 319.86 210.69
  Q 319.66 210.57 319.52 210.76
  L 316.13 215.37
  Q 316.01 212.80 316.81 210.56
  Q 317.00 210.04 316.48 209.86
  Q 312.95 208.60 311.12 211.41
  L 309.97 210.71
  Q 310.33 206.27 306.84 203.23
  Q 306.38 202.83 306.38 203.44
  L 306.38 209.70
  Q 306.14 216.83 302.28 222.53
  C 297.97 228.90 289.36 230.21 284.65 223.82
  C 280.20 217.79 279.96 210.91 280.28 202.98
  Q 280.31 202.42 279.75 202.38
  Q 278.51 202.28 277.33 202.71
  Q 275.23 203.49 276.48 201.63
  C 281.03 194.94 289.28 192.31 297.12 192.20
  Q 298.78 192.17 302.22 189.15
  A 0.42 0.42 0.0 0 1 302.87 189.66
  L 302.09 191.18
  A 1.19 1.19 0.0 0 0 302.93 192.89
  L 309.06 194.05
  A 0.67 0.65 25.4 0 0 309.70 193.83
  L 312.67 190.27
  A 1.33 1.31 -33.7 0 0 312.92 189.07
  L 310.84 182.01
  A 1.29 1.28 78.2 0 0 309.46 181.10
  Q 297.18 182.53 285.28 185.85
  Q 284.82 185.98 284.49 186.33
  Q 277.95 193.31 270.27 198.71
  Q 268.02 199.11 266.41 201.20
  C 264.07 202.61 261.95 204.44 259.58 205.57
  Q 253.07 208.67 246.41 210.51
  Q 245.63 210.72 246.13 210.08
  C 248.64 206.84 251.42 204.66 252.32 200.40
  A 1.44 1.43 -71.1 0 0 251.54 198.80
  Q 242.28 194.34 235.43 186.76
  C 234.91 186.18 233.88 185.57 233.25 185.43
  Q 221.79 182.81 210.77 180.94
  A 1.78 1.78 0.0 0 0 208.78 182.14
  L 206.36 189.50
  A 0.64 0.62 -57.7 0 0 206.49 190.13
  L 209.83 193.79
  Q 210.23 194.22 210.80 194.08
  L 217.16 192.53
  A 0.85 0.85 0.0 0 0 217.79 191.56
  L 217.53 190.02
  A 0.31 0.31 0.0 0 1 218.07 189.76
  C 219.56 191.39 220.84 192.20 223.19 192.23
  C 232.88 192.32 240.32 194.98 244.82 203.92
  Q 245.12 204.52 244.53 204.20
  L 242.21 202.92
  Q 241.56 202.56 241.50 203.31
  C 241.39 204.88 243.15 205.70 243.62 207.27
  Q 243.86 208.09 243.17 207.59
  L 240.25 205.48
  A 0.35 0.34 -73.6 0 0 239.71 205.78
  C 240.09 213.84 237.35 228.70 226.49 228.03
  C 217.57 227.49 213.81 216.80 213.17 208.84
  Z
  M 201.83 199.22
  Q 199.88 195.46 198.66 191.50
  Q 197.25 186.89 197.26 191.71
  Q 197.27 195.30 198.03 200.88
  Q 198.19 202.07 199.30 201.60
  L 201.27 200.77
  A 1.12 1.12 0.0 0 0 201.83 199.22
  Z
  M 321.40 190.52
  L 317.40 199.75
  A 0.89 0.89 0.0 0 0 317.97 200.95
  L 320.06 201.56
  A 0.86 0.86 0.0 0 0 321.15 200.84
  Q 321.80 195.73 321.77 190.59
  Q 321.76 189.70 321.40 190.52
  Z
  M 165.61 203.23
  L 163.83 221.65
  Q 163.77 222.24 164.37 222.24
  L 171.34 222.25
  Q 173.59 222.78 176.35 222.42
  Q 176.80 222.37 176.80 221.91
  L 176.91 190.84
  A 0.70 0.70 0.0 0 0 176.21 190.14
  L 165.93 190.25
  A 0.63 0.63 0.0 0 0 165.30 190.90
  L 165.61 203.23
  Z
  M 347.39 222.21
  L 355.60 222.23
  Q 356.17 222.23 356.09 221.66
  Q 354.00 208.08 353.72 193.77
  Q 354.20 192.31 353.88 190.77
  Q 353.77 190.26 353.25 190.26
  L 343.51 190.26
  Q 343.04 190.26 343.04 190.74
  L 342.97 222.01
  A 0.62 0.62 0.0 0 0 343.48 222.62
  Q 345.57 223.01 347.39 222.21
  Z
  M 207.97 194.59
  L 206.69 193.02
  A 0.50 0.50 0.0 0 0 205.99 192.95
  L 205.79 193.12
  A 2.32 1.40 -39.3 0 0 204.88 195.67
  L 205.02 195.84
  A 2.32 1.40 -39.3 0 0 207.70 195.45
  L 207.90 195.29
  A 0.50 0.50 0.0 0 0 207.97 194.59
  Z
  M 313.68 194.04
  Q 313.60 193.65 313.21 193.65
  Q 312.32 193.66 311.98 194.57
  Q 311.81 195.03 312.02 195.41
  Q 312.33 195.97 313.03 196.00
  A 0.65 0.64 5.5 0 0 313.69 195.46
  Q 313.82 194.74 313.68 194.04
  Z
  M 137.46 224.21
  C 129.00 237.27 128.71 255.88 141.23 266.41
  A 0.44 0.44 0.0 0 0 141.93 266.23
  C 149.66 245.63 153.22 224.91 157.31 203.51
  Q 157.62 201.89 156.35 202.94
  Q 145.39 211.99 137.46 224.21
  Z
  M 362.30 203.41
  C 365.49 224.29 369.87 246.39 377.81 266.08
  A 0.55 0.55 0.0 0 0 378.70 266.27
  C 400.48 245.24 381.46 217.46 362.82 203.10
  Q 362.18 202.61 362.30 203.41
  Z
  M 334.93 222.54
  Q 333.32 224.48 331.99 226.39
  C 329.09 230.56 326.05 233.66 321.62 236.15
  A 2.35 2.33 -11.6 0 0 320.43 237.94
  L 319.30 248.53
  C 319.04 252.70 319.27 256.92 318.73 260.81
  C 317.16 272.19 315.21 282.92 310.87 293.63
  C 307.32 302.39 301.22 313.14 298.11 321.31
  Q 294.07 331.92 292.35 342.84
  Q 291.87 345.90 293.07 343.05
  C 300.36 325.76 314.30 312.10 323.95 295.71
  Q 335.46 276.18 335.88 251.99
  Q 336.23 231.77 335.78 221.24
  Q 335.75 220.54 335.32 221.10
  Q 334.80 221.78 334.93 222.54
  Z
  M 199.66 248.49
  L 199.36 238.36
  A 1.13 1.11 -76.2 0 0 198.80 237.42
  Q 191.57 233.32 185.82 224.93
  Q 185.65 223.76 184.27 221.89
  Q 183.77 221.20 183.77 222.05
  C 183.70 236.83 182.85 259.35 187.47 276.91
  C 191.16 290.95 199.53 302.99 208.82 314.68
  Q 219.62 328.28 226.67 343.32
  Q 227.25 344.57 227.09 343.20
  Q 225.97 333.18 222.57 323.61
  C 219.91 316.14 214.51 306.16 211.36 299.39
  C 203.67 282.90 200.47 266.42 199.66 248.49
  Z
  M 168.61 231.90
  Q 166.33 238.62 164.12 245.44
  C 158.59 262.47 151.30 278.86 142.97 294.70
  C 136.62 306.78 128.10 320.20 120.67 332.95
  C 105.95 355.40 92.00 387.54 112.57 411.80
  Q 114.71 414.32 113.57 411.22
  C 107.77 395.54 111.22 374.66 117.78 359.75
  Q 121.01 352.40 124.85 345.35
  C 133.15 330.77 143.21 314.43 149.85 301.62
  C 155.42 290.87 161.32 279.75 165.27 268.29
  Q 167.07 264.32 168.71 260.44
  Q 168.88 260.04 168.95 259.99
  Q 169.63 259.56 169.59 260.36
  C 168.82 276.13 170.25 290.60 181.50 303.18
  Q 183.30 305.19 185.26 306.47
  A 0.33 0.33 0.0 0 0 185.72 306.03
  C 179.46 295.43 175.75 285.18 175.17 272.34
  Q 174.26 252.36 175.31 232.10
  Q 175.34 231.57 174.81 231.59
  L 168.61 231.90
  Z
  M 351.92 262.06
  C 359.13 281.85 366.72 297.29 376.36 313.74
  Q 384.75 328.06 392.99 342.47
  C 404.82 363.18 414.07 388.87 405.60 412.00
  Q 404.50 415.01 406.52 412.52
  C 417.70 398.77 419.91 381.77 414.52 365.00
  Q 409.46 349.31 400.14 335.26
  Q 394.72 325.37 388.92 315.90
  Q 381.64 304.02 378.78 298.66
  C 370.11 282.46 361.94 265.43 356.18 247.95
  Q 353.63 240.21 351.30 232.32
  A 1.19 1.18 -7.1 0 0 350.20 231.47
  Q 349.99 231.46 349.74 231.69
  L 344.97 231.52
  A 0.60 0.60 0.0 0 0 344.34 232.15
  C 345.49 256.68 347.96 282.98 334.69 304.68
  Q 332.96 307.52 335.63 305.54
  C 348.22 296.24 351.61 274.72 350.08 260.36
  Q 350.04 259.96 350.44 259.72
  Q 350.71 259.57 350.84 259.85
  L 351.92 262.06
  Z
  M 234.66 328.21
  L 239.47 339.47
  A 0.56 0.56 0.0 0 0 240.24 339.74
  Q 259.82 329.32 279.48 339.53
  Q 279.92 339.76 280.11 339.30
  L 284.90 328.11
  Q 288.14 319.18 293.79 310.31
  A 0.64 0.64 0.0 0 0 293.38 309.34
  Q 285.58 307.67 282.60 301.19
  Q 281.23 298.24 281.19 292.13
  Q 281.15 286.25 281.07 280.51
  A 0.60 0.60 0.0 0 0 280.16 280.00
  Q 275.27 282.92 270.20 285.68
  C 258.45 292.10 250.18 286.81 239.51 280.17
  A 0.66 0.66 0.0 0 0 238.50 280.73
  C 238.47 287.22 239.30 296.66 236.69 301.85
  Q 233.78 307.63 226.53 309.40
  A 0.75 0.75 0.0 0 0 226.07 310.52
  Q 230.89 318.33 233.92 327.03
  Q 234.08 327.51 234.66 328.21
  Z
  M 191.56 312.86
  L 187.91 314.22
  Q 187.36 314.43 187.62 314.95
  Q 188.56 316.82 190.18 319.07
  C 198.92 331.17 207.75 341.03 220.82 348.78
  Q 221.38 349.11 221.16 348.50
  Q 219.89 345.06 217.61 342.74
  C 217.51 338.61 209.07 328.29 206.35 324.69
  C 202.96 320.22 200.29 315.95 197.45 311.39
  Q 197.15 310.92 196.63 311.10
  L 191.56 312.86
  Z
  M 300.50 345.24
  L 298.84 348.08
  Q 298.21 349.18 299.30 348.53
  C 313.92 339.93 321.74 328.46 332.24 314.99
  Q 332.61 314.51 332.05 314.31
  L 327.90 312.81
  L 323.47 311.45
  A 1.38 1.38 0.0 0 0 321.92 312.00
  Q 311.50 327.36 301.10 342.88
  Q 300.62 343.59 300.50 345.24
  Z
  M 254.95 373.93
  Q 255.21 374.45 254.65 374.26
  C 230.92 365.92 207.07 351.38 191.10 331.64
  Q 186.76 326.27 180.57 317.18
  Q 180.38 316.91 180.06 317.01
  L 174.19 318.93
  A 0.19 0.19 0.0 0 0 174.10 319.22
  Q 186.19 335.91 190.02 340.25
  C 207.87 360.45 233.37 374.49 258.75 382.38
  Q 259.75 382.68 260.74 382.37
  C 288.40 373.60 313.12 360.03 331.91 337.42
  Q 337.17 331.09 345.37 319.53
  A 0.36 0.36 0.0 0 0 345.20 318.98
  L 339.56 316.96
  Q 339.08 316.79 338.80 317.21
  Q 334.25 323.95 328.90 330.90
  C 313.01 351.54 289.67 365.95 265.13 373.91
  A 0.28 0.28 0.0 0 1 264.79 373.52
  L 272.44 358.25
  Q 272.65 357.83 272.24 357.60
  Q 259.85 350.62 247.31 357.51
  A 0.32 0.32 0.0 0 0 247.17 357.93
  L 254.95 373.93
  Z
  M 276.12 346.44
  C 264.41 339.60 255.12 341.09 243.03 346.44
  Q 242.50 346.68 242.74 347.21
  L 244.15 350.26
  Q 244.39 350.76 244.89 350.52
  C 254.65 345.84 264.58 344.92 274.26 350.62
  A 0.93 0.92 -62.5 0 0 275.57 350.20
  L 276.60 347.94
  Q 277.04 346.98 276.12 346.44
  Z
  M 234.49 394.57
  L 243.25 397.53
  Q 243.45 397.60 243.59 397.44
  L 250.31 389.88
  Q 250.45 389.72 250.24 389.65
  Q 227.61 382.13 208.10 368.86
  Q 205.49 367.08 202.70 365.49
  L 196.80 360.58
  Q 195.10 359.16 195.80 361.26
  L 202.97 382.57
  A 1.81 1.77 -87.5 0 0 203.94 383.65
  Q 218.87 390.21 234.49 394.57
  Z
  M 320.81 362.17
  Q 311.07 369.67 301.20 375.44
  Q 286.16 384.25 268.90 389.53
  Q 268.65 389.61 268.83 389.81
  L 275.76 397.43
  Q 275.94 397.62 276.19 397.55
  L 286.71 394.42
  Q 299.88 390.44 312.37 384.88
  C 313.88 384.20 316.37 383.30 316.87 381.79
  Q 320.33 371.23 323.91 360.98
  Q 324.49 359.30 323.09 360.39
  L 320.81 362.17
  Z
  M 249.64 408.30
  C 252.74 418.39 265.19 418.36 269.62 409.00
  Q 271.53 402.51 266.76 397.98
  C 259.04 390.63 246.80 397.98 249.64 408.30
  Z"
/>
<path fill="#ffffff" d="
  M 251.74 71.01
  C 253.59 71.26 257.51 73.23 258.69 74.68
  A 1.50 1.50 0.0 0 0 260.90 74.81
  C 265.88 69.99 273.44 69.65 279.92 70.91
  C 307.31 76.21 329.81 97.06 340.91 122.07
  Q 343.40 127.67 346.64 139.15
  C 347.19 141.10 347.95 145.64 347.62 147.69
  Q 347.57 148.03 347.39 147.73
  L 344.62 143.04
  Q 344.44 142.74 344.37 142.39
  Q 344.25 141.81 343.78 141.44
  Q 343.39 141.14 343.15 140.71
  Q 339.46 133.99 337.03 130.26
  C 322.44 107.83 309.28 89.69 285.48 78.85
  C 277.68 75.29 268.69 73.26 260.77 77.27
  A 1.16 1.15 -46.5 0 1 259.80 77.30
  Q 258.75 76.86 256.89 75.99
  C 249.80 72.66 235.51 77.75 229.07 81.35
  Q 214.55 89.46 205.12 99.87
  Q 194.51 111.59 190.13 118.63
  C 184.03 128.44 177.69 137.89 172.59 148.11
  Q 171.97 149.36 171.98 147.97
  Q 172.01 143.47 173.27 138.40
  C 180.72 108.67 200.11 84.77 229.04 73.74
  Q 240.20 69.49 251.74 71.01
  Z"
/>
<path fill="#ffffff" d="
  M 205.33 133.14
  Q 206.44 132.27 206.38 129.90
  Q 207.87 128.39 208.69 126.59
  Q 209.04 125.81 208.30 126.24
  Q 196.40 133.02 187.47 143.36
  A 0.11 0.10 73.9 0 1 187.29 143.26
  C 192.05 126.62 204.59 111.99 217.87 101.35
  Q 231.35 90.56 244.76 84.74
  C 249.55 82.66 256.32 88.97 259.14 92.55
  A 0.82 0.81 47.1 0 0 260.39 92.60
  C 263.88 88.77 270.47 82.08 276.60 85.32
  C 300.63 98.04 324.30 116.37 332.59 143.52
  Q 332.80 144.21 332.28 143.72
  Q 330.24 141.83 328.31 139.95
  Q 320.62 132.43 311.98 126.99
  Q 310.38 125.98 311.40 127.57
  C 320.49 141.81 323.75 161.08 323.21 177.75
  Q 323.15 179.66 323.11 179.83
  Q 322.15 184.19 321.10 179.85
  C 320.85 178.82 320.89 177.28 320.55 176.06
  C 316.46 161.16 309.97 149.71 301.51 135.76
  Q 300.87 134.70 300.65 132.98
  C 298.45 115.56 290.57 98.68 276.34 88.26
  Q 274.83 87.15 275.72 88.80
  Q 278.55 94.03 282.01 99.67
  C 293.09 117.76 296.55 141.39 288.64 161.51
  A 0.13 0.04 26.6 0 1 288.50 161.49
  Q 288.42 161.46 288.34 161.42
  Q 288.20 161.36 288.21 161.30
  C 289.04 153.66 289.39 144.86 287.61 136.95
  C 285.61 128.11 279.97 119.58 274.07 112.53
  A 0.59 0.59 0.0 0 0 273.03 112.83
  C 271.79 122.63 265.55 132.15 258.44 138.91
  Q 256.77 140.49 257.15 138.23
  L 257.98 133.27
  Q 258.42 130.65 257.22 133.02
  C 255.67 136.09 254.31 139.28 252.22 142.10
  C 246.33 150.03 239.49 157.61 236.37 167.17
  Q 236.00 168.33 235.24 168.02
  A 0.47 0.46 6.9 0 1 234.95 167.66
  Q 232.69 154.93 235.06 142.32
  Q 235.97 137.46 237.15 132.66
  Q 237.34 131.88 236.77 132.44
  Q 234.66 134.48 232.85 136.72
  C 230.93 139.08 227.80 141.73 226.78 145.61
  A 0.27 0.27 0.0 0 1 226.25 145.59
  Q 226.09 144.84 226.08 143.74
  C 225.90 127.74 230.75 112.70 239.39 99.33
  Q 241.71 95.73 243.33 91.57
  Q 243.57 90.95 242.92 91.13
  C 238.68 92.32 231.39 101.62 229.09 105.39
  Q 221.04 118.57 219.16 134.13
  C 218.73 137.66 213.93 144.14 210.81 149.01
  C 204.93 158.19 198.71 170.53 197.72 181.75
  A 0.46 0.46 0.0 0 1 197.25 182.17
  L 196.98 182.16
  A 0.74 0.73 -0.8 0 1 196.26 181.47
  Q 194.89 158.11 203.55 136.24
  Q 203.89 135.39 205.33 133.14
  Z"
/>
<path fill="#b46a88" d="
  M 169.48 116.07
  L 168.77 117.91
  C 165.44 119.12 162.65 122.14 160.06 124.09
  Q 155.57 127.46 154.29 128.64
  C 149.47 133.07 144.19 137.63 140.00 142.65
  Q 138.33 144.65 136.65 146.62
  C 134.44 149.21 132.10 151.69 129.97 154.33
  C 128.60 156.03 126.73 157.87 125.55 160.26
  Q 124.73 161.93 123.78 162.97
  C 121.15 165.89 119.33 169.37 116.28 174.75
  Q 115.98 175.28 115.62 175.50
  Q 115.29 175.71 115.11 176.05
  L 112.27 181.50
  Q 111.21 184.48 109.40 187.21
  C 109.03 187.78 109.08 188.35 108.70 189.03
  C 107.29 191.55 106.58 194.44 105.42 197.06
  C 104.68 198.74 104.47 200.48 103.72 202.11
  C 103.19 203.26 102.61 204.46 102.46 205.79
  C 102.31 207.10 101.50 208.39 101.26 209.35
  Q 100.29 213.22 99.16 217.06
  C 98.40 219.68 98.38 222.74 97.71 224.99
  Q 95.74 231.59 96.18 238.50
  C 96.24 239.44 95.39 240.71 95.30 241.88
  C 94.55 251.08 93.20 261.77 95.66 270.99
  A 0.11 0.09 12.4 0 0 95.70 271.04
  L 96.05 271.27
  Q 96.12 271.32 96.12 271.40
  Q 96.09 274.33 96.27 277.25
  Q 96.39 279.25 97.30 282.65
  Q 98.05 285.46 98.34 288.35
  Q 98.69 291.83 99.24 294.03
  Q 100.13 297.53 100.86 301.07
  Q 100.89 301.21 101.02 301.28
  L 101.30 301.43
  Q 101.63 301.61 101.70 301.99
  Q 102.59 307.21 103.15 308.48
  Q 106.38 315.77 109.40 323.10
  Q 110.21 325.05 111.70 324.33
  L 109.81 327.76
  Q 107.54 322.04 105.18 316.22
  C 87.20 271.97 89.89 219.56 112.96 177.91
  Q 127.24 152.13 149.18 132.45
  Q 152.04 129.89 154.89 127.32
  C 159.13 123.50 163.93 120.09 168.42 116.41
  Q 168.69 116.19 169.03 116.19
  Q 169.25 116.19 169.48 116.07
  Z"
/>
<path fill="#b46a88" d="
  M 349.64 115.99
  Q 351.20 116.30 352.52 117.47
  C 356.17 120.69 360.22 123.27 363.88 126.56
  C 369.29 131.41 375.29 136.28 379.99 141.20
  C 393.13 154.95 403.54 169.97 411.55 187.26
  C 431.71 230.77 430.09 284.01 410.13 327.30
  L 409.16 325.74
  Q 409.88 325.61 410.09 325.12
  Q 410.86 323.33 411.47 321.03
  C 412.17 318.39 413.51 315.91 414.13 313.12
  Q 414.20 312.81 414.68 312.38
  Q 415.05 312.04 415.18 311.55
  Q 416.03 308.32 416.69 306.77
  C 417.61 304.65 417.76 302.61 418.49 300.64
  Q 419.09 299.03 419.53 296.99
  Q 422.93 281.54 424.04 267.23
  Q 424.25 264.63 424.34 262.01
  Q 424.59 254.43 424.30 246.85
  Q 424.30 246.75 424.20 246.72
  Q 424.15 246.71 424.10 246.70
  Q 423.90 243.54 424.05 240.37
  C 424.12 238.85 423.35 237.65 423.33 236.05
  Q 423.26 228.42 422.08 225.01
  Q 421.35 222.87 420.62 217.89
  Q 419.73 211.82 415.57 200.56
  C 415.28 199.78 415.37 198.73 414.89 197.85
  Q 414.24 196.68 414.20 196.58
  Q 410.83 188.53 406.89 180.75
  C 406.24 179.46 405.80 177.69 405.16 176.61
  C 398.63 165.45 391.43 154.90 382.55 145.47
  Q 375.51 138.00 367.82 131.22
  C 366.37 129.94 364.33 128.85 362.63 127.37
  Q 358.11 123.42 351.19 118.43
  L 349.64 115.99
  Z"
/>
<path fill="#ff565e" d="
  M 168.77 117.91
  Q 167.88 121.28 166.83 124.44
  Q 162.23 138.33 161.14 152.78
  A 0.96 0.95 82.3 0 1 160.52 153.60
  Q 150.33 157.35 140.70 152.39
  A 0.18 0.18 0.0 0 0 140.47 152.65
  Q 146.53 162.13 157.75 163.93
  Q 158.78 164.09 158.79 165.13
  C 158.84 168.95 159.45 174.92 157.87 178.10
  C 155.73 182.40 150.36 184.69 145.77 184.46
  C 139.45 184.12 133.64 178.18 130.53 172.91
  Q 129.90 171.85 129.66 173.06
  Q 128.97 176.61 130.23 181.80
  Q 129.16 183.36 124.06 183.42
  Q 123.58 183.43 123.25 183.07
  Q 122.94 182.73 122.62 182.73
  Q 120.73 182.72 119.73 184.20
  Q 119.41 184.67 118.95 184.34
  Q 118.19 183.79 117.46 184.03
  Q 116.02 184.49 115.94 184.49
  Q 114.47 184.48 113.41 183.44
  Q 113.31 183.34 113.38 183.23
  L 113.58 182.93
  Q 113.74 182.68 113.66 182.39
  Q 113.44 181.56 113.96 180.98
  Q 114.24 180.66 114.31 180.25
  L 114.53 178.77
  Q 114.60 178.33 114.90 178.00
  Q 115.31 177.56 115.39 177.01
  Q 115.60 175.73 115.10 177.01
  Q 114.85 177.66 114.48 178.22
  C 113.63 179.52 113.75 180.57 112.27 181.50
  L 115.11 176.05
  Q 115.29 175.71 115.62 175.50
  Q 115.98 175.28 116.28 174.75
  C 119.33 169.37 121.15 165.89 123.78 162.97
  Q 124.73 161.93 125.55 160.26
  C 126.73 157.87 128.60 156.03 129.97 154.33
  C 132.10 151.69 134.44 149.21 136.65 146.62
  Q 138.33 144.65 140.00 142.65
  C 144.19 137.63 149.47 133.07 154.29 128.64
  Q 155.57 127.46 160.06 124.09
  C 162.65 122.14 165.44 119.12 168.77 117.91
  Z"
/>
<path fill="#ff565e" d="
  M 351.19 118.43
  Q 358.11 123.42 362.63 127.37
  C 364.33 128.85 366.37 129.94 367.82 131.22
  Q 375.51 138.00 382.55 145.47
  C 391.43 154.90 398.63 165.45 405.16 176.61
  C 405.80 177.69 406.24 179.46 406.89 180.75
  Q 410.83 188.53 414.20 196.58
  Q 414.24 196.68 414.89 197.85
  C 415.37 198.73 415.28 199.78 415.57 200.56
  Q 419.73 211.82 420.62 217.89
  Q 421.35 222.87 422.08 225.01
  Q 423.26 228.42 423.33 236.05
  C 423.35 237.65 424.12 238.85 424.05 240.37
  Q 423.90 243.54 424.10 246.70
  Q 423.78 246.92 423.83 247.14
  Q 423.86 247.27 423.87 247.13
  Q 424.04 245.41 423.63 243.50
  Q 423.52 243.00 422.90 242.70
  Q 422.66 242.59 422.53 242.82
  Q 422.39 243.08 422.13 243.20
  C 420.37 244.03 419.70 245.34 417.56 245.73
  Q 414.34 246.31 411.10 246.66
  C 408.28 246.96 404.38 248.02 400.84 247.86
  Q 400.36 247.83 399.93 248.04
  Q 399.46 248.27 399.01 248.03
  Q 398.68 247.85 398.37 248.08
  Q 397.93 248.42 397.50 248.38
  Q 397.12 248.34 397.12 248.26
  Q 397.12 248.09 397.12 247.93
  A 0.20 0.20 0.0 0 0 396.96 247.73
  Q 396.65 247.67 396.58 248.11
  C 397.84 224.70 381.93 207.62 365.03 193.88
  Q 362.58 191.89 365.56 192.94
  C 371.93 195.19 379.44 193.54 384.46 189.00
  Q 391.33 182.77 390.10 172.67
  Q 389.95 171.45 389.34 172.51
  C 384.05 181.71 374.15 189.38 364.04 180.96
  C 361.95 179.23 360.81 177.20 360.70 174.31
  Q 360.51 169.33 360.33 164.37
  A 0.49 0.49 0.0 0 1 360.78 163.86
  Q 372.92 162.64 379.79 152.74
  Q 380.41 151.85 379.45 152.35
  Q 369.77 157.37 359.29 153.72
  A 0.97 0.97 0.0 0 1 358.64 152.91
  C 357.24 140.98 355.55 130.90 351.19 118.43
  Z"
/>
<path fill="#2aa2fe" d="
  M 206.38 129.90
  Q 206.44 132.27 205.33 133.14
  Q 205.14 131.53 206.38 129.90
  Z"
/>
<path fill="#ffffff" d="
  M 221.81 156.61
  Q 222.48 155.52 222.77 156.77
  C 224.73 165.35 226.16 172.79 230.66 180.54
  Q 230.89 180.94 230.76 181.34
  A 0.35 0.34 17.1 0 1 230.33 181.56
  Q 221.36 178.77 211.96 178.39
  Q 210.49 178.33 211.09 176.99
  Q 215.78 166.43 221.81 156.61
  Z"
/>
<path fill="#ffffff" d="
  M 300.61 160.85
  C 303.38 166.13 306.47 171.55 308.89 177.00
  A 0.94 0.93 -12.2 0 1 308.04 178.31
  Q 298.71 178.36 289.87 181.33
  Q 287.49 182.13 288.81 180.00
  Q 295.33 169.49 296.96 157.20
  Q 297.14 155.86 297.99 156.91
  Q 299.57 158.88 300.61 160.85
  Z"
/>
<path fill="#ffffff" d="
  M 176.43 170.14
  L 166.66 170.11
  A 1.39 1.39 0.0 0 0 165.28 171.25
  L 163.80 179.51
  L 163.83 168.30
  A 0.45 0.45 0.0 0 1 164.28 167.85
  L 176.02 167.74
  Q 176.64 167.74 176.78 168.34
  Q 176.94 169.00 176.43 170.14
  Z"
/>
<path fill="#ffffff" d="
  M 355.84 179.63
  Q 354.91 177.70 354.84 174.74
  Q 354.79 172.79 353.65 170.64
  Q 353.41 170.19 352.89 170.18
  L 343.18 170.07
  Q 342.95 169.28 343.03 168.41
  Q 343.08 167.91 343.59 167.90
  L 354.87 167.73
  A 0.89 0.88 89.4 0 1 355.76 168.61
  L 355.84 179.63
  Z"
/>
<path fill="#fe0275" d="
  M 176.43 170.14
  L 176.69 182.55
  A 0.92 0.91 -0.6 0 1 175.77 183.48
  L 164.52 183.49
  A 1.36 1.35 82.0 0 1 163.22 182.50
  Q 162.72 180.67 163.80 179.51
  L 165.28 171.25
  A 1.39 1.39 0.0 0 1 166.66 170.11
  L 176.43 170.14
  Z"
/>
<path fill="#fe0275" d="
  M 343.18 170.07
  L 352.89 170.18
  Q 353.41 170.19 353.65 170.64
  Q 354.79 172.79 354.84 174.74
  Q 354.91 177.70 355.84 179.63
  Q 356.17 180.67 355.97 182.11
  Q 355.81 183.26 354.66 183.28
  L 343.66 183.42
  A 0.61 0.61 0.0 0 1 343.04 182.81
  L 343.18 170.07
  Z"
/>
<path fill="#ff4874" d="
  M 130.23 181.80
  Q 132.37 187.30 137.51 190.69
  Q 145.39 195.90 153.19 193.11
  Q 156.87 191.80 153.83 194.25
  C 140.99 204.60 126.29 220.42 123.44 237.46
  C 121.06 251.69 126.36 264.97 137.78 273.92
  A 1.35 1.34 31.1 0 1 138.18 275.53
  C 130.55 292.58 121.16 308.21 111.70 324.33
  Q 110.21 325.05 109.40 323.10
  Q 106.38 315.77 103.15 308.48
  Q 102.59 307.21 101.70 301.99
  Q 101.63 301.61 101.30 301.43
  L 101.02 301.28
  Q 100.89 301.21 100.86 301.07
  Q 100.13 297.53 99.24 294.03
  Q 98.69 291.83 98.34 288.35
  Q 98.05 285.46 97.30 282.65
  Q 96.39 279.25 96.27 277.25
  Q 96.09 274.33 96.12 271.40
  Q 96.12 271.32 96.05 271.27
  L 95.70 271.04
  A 0.11 0.09 12.4 0 1 95.66 270.99
  C 93.20 261.77 94.55 251.08 95.30 241.88
  C 95.39 240.71 96.24 239.44 96.18 238.50
  Q 95.74 231.59 97.71 224.99
  C 98.38 222.74 98.40 219.68 99.16 217.06
  Q 100.29 213.22 101.26 209.35
  C 101.50 208.39 102.31 207.10 102.46 205.79
  C 102.61 204.46 103.19 203.26 103.72 202.11
  C 104.47 200.48 104.68 198.74 105.42 197.06
  C 106.58 194.44 107.29 191.55 108.70 189.03
  C 109.08 188.35 109.03 187.78 109.40 187.21
  Q 111.21 184.48 112.27 181.50
  C 113.75 180.57 113.63 179.52 114.48 178.22
  Q 114.85 177.66 115.10 177.01
  Q 115.60 175.73 115.39 177.01
  Q 115.31 177.56 114.90 178.00
  Q 114.60 178.33 114.53 178.77
  L 114.31 180.25
  Q 114.24 180.66 113.96 180.98
  Q 113.44 181.56 113.66 182.39
  Q 113.74 182.68 113.58 182.93
  L 113.38 183.23
  Q 113.31 183.34 113.41 183.44
  Q 114.47 184.48 115.94 184.49
  Q 116.02 184.49 117.46 184.03
  Q 118.19 183.79 118.95 184.34
  Q 119.41 184.67 119.73 184.20
  Q 120.73 182.72 122.62 182.73
  Q 122.94 182.73 123.25 183.07
  Q 123.58 183.43 124.06 183.42
  Q 129.16 183.36 130.23 181.80
  Z"
/>
<path fill="#ffffff" d="
  M 252.24 196.43
  C 249.98 192.62 246.00 185.52 245.87 181.20
  Q 245.81 179.04 246.94 180.88
  Q 250.18 186.11 254.48 190.54
  Q 255.87 191.97 255.11 193.81
  L 254.08 196.29
  Q 253.29 198.21 252.24 196.43
  Z"
/>
<path fill="#ffffff" d="
  M 266.41 201.20
  Q 268.69 200.44 270.27 198.71
  Q 277.95 193.31 284.49 186.33
  Q 284.82 185.98 285.28 185.85
  Q 297.18 182.53 309.46 181.10
  A 1.29 1.28 78.2 0 1 310.84 182.01
  L 312.92 189.07
  A 1.33 1.31 -33.7 0 1 312.67 190.27
  L 309.70 193.83
  A 0.67 0.65 25.4 0 1 309.06 194.05
  L 302.93 192.89
  A 1.19 1.19 0.0 0 1 302.09 191.18
  L 302.87 189.66
  A 0.42 0.42 0.0 0 0 302.22 189.15
  Q 298.78 192.17 297.12 192.20
  C 289.28 192.31 281.03 194.94 276.48 201.63
  Q 275.23 203.49 277.33 202.71
  Q 278.51 202.28 279.75 202.38
  Q 280.31 202.42 280.28 202.98
  C 279.96 210.91 280.20 217.79 284.65 223.82
  C 289.36 230.21 297.97 228.90 302.28 222.53
  Q 306.14 216.83 306.38 209.70
  Q 308.05 209.63 309.97 210.71
  L 311.12 211.41
  Q 311.91 211.93 311.71 213.00
  Q 311.13 216.00 310.02 218.93
  Q 309.85 219.38 310.26 219.12
  L 316.13 215.37
  L 319.52 210.76
  Q 319.66 210.57 319.86 210.69
  L 320.12 210.83
  Q 320.30 210.94 320.19 211.11
  L 312.38 224.14
  Q 311.44 225.71 312.86 224.55
  L 317.68 220.59
  Q 318.59 219.85 318.05 220.89
  C 313.43 229.82 306.92 236.86 296.00 235.72
  Q 294.41 235.55 295.62 236.59
  Q 302.79 242.80 312.29 240.82
  Q 312.89 240.69 312.68 241.27
  Q 312.43 241.94 311.82 242.45
  Q 306.84 246.40 301.15 247.71
  Q 300.71 247.81 300.87 248.24
  Q 300.96 248.46 301.24 248.50
  Q 304.92 249.01 306.72 250.53
  C 298.01 261.94 286.19 268.61 273.48 274.43
  C 266.79 277.49 260.72 280.06 253.99 277.65
  C 238.64 272.15 222.79 263.49 212.38 250.42
  Q 215.28 249.12 217.48 248.89
  Q 221.00 248.50 217.61 247.25
  Q 213.18 245.61 207.80 242.40
  Q 207.13 242.17 206.81 241.31
  A 0.44 0.44 0.0 0 1 207.30 240.72
  Q 216.32 242.40 223.56 237.13
  Q 226.54 234.95 222.91 235.59
  C 213.52 237.24 204.55 229.26 201.29 220.65
  Q 200.94 219.72 201.66 220.40
  Q 204.06 222.62 206.79 224.46
  Q 210.93 227.22 207.64 223.42
  Q 205.64 221.10 202.81 215.49
  Q 206.89 216.57 209.79 219.71
  Q 209.90 219.82 210.08 219.72
  A 0.20 0.19 61.4 0 0 210.15 219.46
  C 208.92 217.22 206.32 212.99 208.49 211.06
  L 209.04 210.70
  L 213.17 208.84
  C 213.81 216.80 217.57 227.49 226.49 228.03
  C 237.35 228.70 240.09 213.84 239.71 205.78
  A 0.35 0.34 -73.6 0 1 240.25 205.48
  L 243.17 207.59
  Q 243.86 208.09 243.62 207.27
  C 243.15 205.70 241.39 204.88 241.50 203.31
  Q 241.56 202.56 242.21 202.92
  L 244.53 204.20
  Q 245.12 204.52 244.82 203.92
  C 240.32 194.98 232.88 192.32 223.19 192.23
  C 220.84 192.20 219.56 191.39 218.07 189.76
  A 0.31 0.31 0.0 0 0 217.53 190.02
  L 217.79 191.56
  A 0.85 0.85 0.0 0 1 217.16 192.53
  L 210.80 194.08
  Q 210.23 194.22 209.83 193.79
  L 206.49 190.13
  A 0.64 0.62 -57.7 0 1 206.36 189.50
  L 208.78 182.14
  A 1.78 1.78 0.0 0 1 210.77 180.94
  Q 221.79 182.81 233.25 185.43
  C 233.88 185.57 234.91 186.18 235.43 186.76
  Q 242.28 194.34 251.54 198.80
  A 1.44 1.43 -71.1 0 1 252.32 200.40
  C 251.42 204.66 248.64 206.84 246.13 210.08
  Q 245.63 210.72 246.41 210.51
  Q 253.07 208.67 259.58 205.57
  C 261.95 204.44 264.07 202.61 266.41 201.20
  Z
  M 277.7945 206.8638
  A 1.30 0.39 20.9 0 0 276.7191 206.0357
  A 1.30 0.39 20.9 0 0 275.3655 205.9362
  A 1.30 0.39 20.9 0 0 276.4409 206.7643
  A 1.30 0.39 20.9 0 0 277.7945 206.8638
  Z"
/>
<path fill="#ffffff" d="
  M 201.83 199.22
  A 1.12 1.12 0.0 0 1 201.27 200.77
  L 199.30 201.60
  Q 198.19 202.07 198.03 200.88
  Q 197.27 195.30 197.26 191.71
  Q 197.25 186.89 198.66 191.50
  Q 199.88 195.46 201.83 199.22
  Z"
/>
<path fill="#fe0275" d="
  M 317.40 199.75
  L 321.40 190.52
  Q 321.76 189.70 321.77 190.59
  Q 321.80 195.73 321.15 200.84
  A 0.86 0.86 0.0 0 1 320.06 201.56
  L 317.97 200.95
  A 0.89 0.89 0.0 0 1 317.40 199.75
  Z"
/>
<path fill="#fe0275" d="
  M 171.34 222.25
  C 168.79 215.22 168.81 207.23 168.59 199.81
  Q 168.57 199.04 167.95 199.51
  Q 166.21 200.86 165.61 203.23
  L 165.30 190.90
  A 0.63 0.63 0.0 0 1 165.93 190.25
  L 176.21 190.14
  A 0.70 0.70 0.0 0 1 176.91 190.84
  L 176.80 221.91
  Q 176.80 222.37 176.35 222.42
  Q 173.59 222.78 171.34 222.25
  Z"
/>
<path fill="#fe0275" d="
  M 353.72 193.77
  Q 351.96 194.83 351.68 198.00
  C 351.19 203.76 350.07 214.44 347.39 222.21
  Q 345.57 223.01 343.48 222.62
  A 0.62 0.62 0.0 0 1 342.97 222.01
  L 343.04 190.74
  Q 343.04 190.26 343.51 190.26
  L 353.25 190.26
  Q 353.77 190.26 353.88 190.77
  Q 354.20 192.31 353.72 193.77
  Z"
/>
<path fill="#ffffff" d="
  M 207.97 194.59
  A 0.50 0.50 0.0 0 1 207.90 195.29
  L 207.70 195.45
  A 2.32 1.40 -39.3 0 1 205.02 195.84
  L 204.88 195.67
  A 2.32 1.40 -39.3 0 1 205.79 193.12
  L 205.99 192.95
  A 0.50 0.50 0.0 0 1 206.69 193.02
  L 207.97 194.59
  Z"
/>
<path fill="#ff4874" d="
  M 313.68 194.04
  Q 313.82 194.74 313.69 195.46
  A 0.65 0.64 5.5 0 1 313.03 196.00
  Q 312.33 195.97 312.02 195.41
  Q 311.81 195.03 311.98 194.57
  Q 312.32 193.66 313.21 193.65
  Q 313.60 193.65 313.68 194.04
  Z"
/>
<path fill="#ffffff" d="
  M 353.72 193.77
  Q 354.00 208.08 356.09 221.66
  Q 356.17 222.23 355.60 222.23
  L 347.39 222.21
  C 350.07 214.44 351.19 203.76 351.68 198.00
  Q 351.96 194.83 353.72 193.77
  Z"
/>
<path fill="#b46a88" d="
  M 270.27 198.71
  Q 268.69 200.44 266.41 201.20
  Q 268.02 199.11 270.27 198.71
  Z"
/>
<path fill="#ffffff" d="
  M 171.34 222.25
  L 164.37 222.24
  Q 163.77 222.24 163.83 221.65
  L 165.61 203.23
  Q 166.21 200.86 167.95 199.51
  Q 168.57 199.04 168.59 199.81
  C 168.81 207.23 168.79 215.22 171.34 222.25
  Z"
/>
<path fill="#ff4874" d="
  M 141.23 266.41
  C 128.71 255.88 129.00 237.27 137.46 224.21
  Q 145.39 211.99 156.35 202.94
  Q 157.62 201.89 157.31 203.51
  C 153.22 224.91 149.66 245.63 141.93 266.23
  A 0.44 0.44 0.0 0 1 141.23 266.41
  Z"
/>
<path fill="#3750fc" d="
  M 309.97 210.71
  Q 308.05 209.63 306.38 209.70
  L 306.38 203.44
  Q 306.38 202.83 306.84 203.23
  Q 310.33 206.27 309.97 210.71
  Z"
/>
<path fill="#ff4874" d="
  M 377.81 266.08
  C 369.87 246.39 365.49 224.29 362.30 203.41
  Q 362.18 202.61 362.82 203.10
  C 381.46 217.46 400.48 245.24 378.70 266.27
  A 0.55 0.55 0.0 0 1 377.81 266.08
  Z"
/>
<path fill="#3750fc" d="
  M 213.17 208.84
  L 209.04 210.70
  C 208.15 208.84 211.33 204.86 212.45 203.87
  Q 214.61 201.95 213.48 204.60
  Q 212.69 206.46 213.17 208.84
  Z"
/>
<ellipse fill="#b46a88" cx="0.00" cy="0.00" transform="translate(276.58,206.40) rotate(20.9)" rx="1.30" ry="0.39"/>
<path fill="#fe0275" d="
  M 208.49 211.06
  C 206.32 212.99 208.92 217.22 210.15 219.46
  A 0.20 0.19 61.4 0 1 210.08 219.72
  Q 209.90 219.82 209.79 219.71
  Q 206.89 216.57 202.81 215.49
  L 200.37 211.22
  A 0.23 0.23 0.0 0 1 200.51 210.88
  L 200.81 210.80
  A 0.27 0.27 0.0 0 1 201.13 210.99
  Q 201.57 212.68 202.97 213.63
  A 0.44 0.44 0.0 0 0 203.66 213.26
  Q 203.65 211.74 202.44 210.80
  Q 202.04 210.49 202.45 210.19
  Q 205.30 208.05 207.51 210.93
  Q 207.78 211.29 208.49 211.06
  Z"
/>
<path fill="#fe0275" d="
  M 316.13 215.37
  L 310.26 219.12
  Q 309.85 219.38 310.02 218.93
  Q 311.13 216.00 311.71 213.00
  Q 311.91 211.93 311.12 211.41
  Q 312.95 208.60 316.48 209.86
  Q 317.00 210.04 316.81 210.56
  Q 316.01 212.80 316.13 215.37
  Z"
/>
<path fill="#ffffff" d="
  M 319.30 248.53
  Q 328.82 242.57 333.13 232.13
  Q 335.06 227.46 334.93 222.54
  Q 334.80 221.78 335.32 221.10
  Q 335.75 220.54 335.78 221.24
  Q 336.23 231.77 335.88 251.99
  Q 335.46 276.18 323.95 295.71
  C 314.30 312.10 300.36 325.76 293.07 343.05
  Q 291.87 345.90 292.35 342.84
  Q 294.07 331.92 298.11 321.31
  C 301.22 313.14 307.32 302.39 310.87 293.63
  C 315.21 282.92 317.16 272.19 318.73 260.81
  C 319.27 256.92 319.04 252.70 319.30 248.53
  Z"
/>
<path fill="#ffffff" d="
  M 185.82 224.93
  Q 185.75 239.67 199.66 248.49
  C 200.47 266.42 203.67 282.90 211.36 299.39
  C 214.51 306.16 219.91 316.14 222.57 323.61
  Q 225.97 333.18 227.09 343.20
  Q 227.25 344.57 226.67 343.32
  Q 219.62 328.28 208.82 314.68
  C 199.53 302.99 191.16 290.95 187.47 276.91
  C 182.85 259.35 183.70 236.83 183.77 222.05
  Q 183.77 221.20 184.27 221.89
  Q 185.65 223.76 185.82 224.93
  Z"
/>
<path fill="#3750fc" d="
  M 334.93 222.54
  Q 335.06 227.46 333.13 232.13
  Q 328.82 242.57 319.30 248.53
  L 320.43 237.94
  A 2.35 2.33 -11.6 0 1 321.62 236.15
  C 326.05 233.66 329.09 230.56 331.99 226.39
  Q 333.32 224.48 334.93 222.54
  Z"
/>
<path fill="#3750fc" d="
  M 185.82 224.93
  Q 191.57 233.32 198.80 237.42
  A 1.13 1.11 -76.2 0 1 199.36 238.36
  L 199.66 248.49
  Q 185.75 239.67 185.82 224.93
  Z"
/>
<path fill="#e840c2" d="
  M 165.27 268.29
  Q 165.91 262.54 167.96 257.14
  C 168.78 254.98 168.64 253.45 168.67 251.24
  Q 168.69 249.44 169.09 246.79
  Q 169.90 241.37 168.68 235.86
  Q 168.30 234.52 169.42 232.40
  Q 169.59 232.07 168.61 231.90
  L 174.81 231.59
  Q 175.34 231.57 175.31 232.10
  Q 174.26 252.36 175.17 272.34
  C 175.75 285.18 179.46 295.43 185.72 306.03
  A 0.33 0.33 0.0 0 1 185.26 306.47
  Q 183.30 305.19 181.50 303.18
  C 170.25 290.60 168.82 276.13 169.59 260.36
  Q 169.63 259.56 168.95 259.99
  Q 168.88 260.04 168.71 260.44
  Q 167.07 264.32 165.27 268.29
  Z"
/>
<path fill="#e840c2" d="
  M 349.74 231.69
  Q 351.15 234.82 351.18 237.05
  Q 349.94 240.25 351.08 243.96
  Q 351.57 245.57 351.57 247.14
  C 351.56 249.21 352.03 251.01 352.10 253.13
  C 352.19 256.23 352.62 258.59 351.92 262.06
  L 350.84 259.85
  Q 350.71 259.57 350.44 259.72
  Q 350.04 259.96 350.08 260.36
  C 351.61 274.72 348.22 296.24 335.63 305.54
  Q 332.96 307.52 334.69 304.68
  C 347.96 282.98 345.49 256.68 344.34 232.15
  A 0.60 0.60 0.0 0 1 344.97 231.52
  L 349.74 231.69
  Z"
/>
<path fill="#ffffff" d="
  M 400.14 335.26
  Q 390.22 321.49 381.89 306.87
  C 369.22 284.64 358.45 261.63 351.18 237.05
  Q 351.15 234.82 349.74 231.69
  Q 349.99 231.46 350.20 231.47
  A 1.19 1.18 -7.1 0 1 351.30 232.32
  Q 353.63 240.21 356.18 247.95
  C 361.94 265.43 370.11 282.46 378.78 298.66
  Q 381.64 304.02 388.92 315.90
  Q 394.72 325.37 400.14 335.26
  Z"
/>
<path fill="#ffffff" d="
  M 168.61 231.90
  Q 169.59 232.07 169.42 232.40
  Q 168.30 234.52 168.68 235.86
  C 166.11 243.76 163.88 251.89 160.93 259.17
  C 153.66 277.13 145.27 294.71 135.14 311.24
  C 130.58 318.66 126.58 325.61 121.29 333.36
  Q 120.63 333.36 120.67 332.95
  C 128.10 320.20 136.62 306.78 142.97 294.70
  C 151.30 278.86 158.59 262.47 164.12 245.44
  Q 166.33 238.62 168.61 231.90
  Z"
/>
<path fill="#fa502d" d="
  M 168.68 235.86
  Q 169.90 241.37 169.09 246.79
  Q 168.69 249.44 168.67 251.24
  C 168.64 253.45 168.78 254.98 167.96 257.14
  Q 165.91 262.54 165.27 268.29
  C 161.32 279.75 155.42 290.87 149.85 301.62
  C 143.21 314.43 133.15 330.77 124.85 345.35
  Q 124.45 344.48 124.98 343.75
  Q 125.29 343.33 125.11 342.85
  Q 124.94 342.40 124.52 342.13
  Q 124.17 341.90 124.17 341.48
  L 124.16 340.78
  Q 124.16 340.39 123.77 340.34
  Q 123.60 340.31 123.43 340.35
  Q 123.00 340.44 122.71 340.10
  Q 121.56 338.75 119.72 338.59
  A 0.60 0.60 0.0 0 1 119.32 337.59
  L 120.32 336.44
  Q 120.61 336.11 120.63 335.67
  Q 120.69 334.44 121.29 333.36
  C 126.58 325.61 130.58 318.66 135.14 311.24
  C 145.27 294.71 153.66 277.13 160.93 259.17
  C 163.88 251.89 166.11 243.76 168.68 235.86
  Z"
/>
<path fill="#ff565e" d="
  M 351.18 237.05
  C 358.45 261.63 369.22 284.64 381.89 306.87
  Q 390.22 321.49 400.14 335.26
  Q 409.46 349.31 414.52 365.00
  C 419.91 381.77 417.70 398.77 406.52 412.52
  Q 404.50 415.01 405.60 412.00
  C 414.07 388.87 404.82 363.18 392.99 342.47
  Q 384.75 328.06 376.36 313.74
  C 366.72 297.29 359.13 281.85 351.92 262.06
  C 352.62 258.59 352.19 256.23 352.10 253.13
  C 352.03 251.01 351.56 249.21 351.57 247.14
  Q 351.57 245.57 351.08 243.96
  Q 349.94 240.25 351.18 237.05
  Z"
/>
<path fill="#fe0275" d="
  M 207.80 242.40
  Q 213.18 245.61 217.61 247.25
  Q 221.00 248.50 217.48 248.89
  Q 215.28 249.12 212.38 250.42
  C 210.71 248.36 207.95 245.20 207.80 242.40
  Z"
/>
<path fill="#fe0275" d="
  M 311.82 242.45
  L 306.72 250.53
  Q 304.92 249.01 301.24 248.50
  Q 300.96 248.46 300.87 248.24
  Q 300.71 247.81 301.15 247.71
  Q 306.84 246.40 311.82 242.45
  Z"
/>
<path fill="#ff4874" d="
  M 424.10 246.70
  Q 424.15 246.71 424.20 246.72
  Q 424.30 246.75 424.30 246.85
  Q 424.59 254.43 424.34 262.01
  Q 424.25 264.63 424.04 267.23
  Q 422.93 281.54 419.53 296.99
  Q 419.09 299.03 418.49 300.64
  C 417.76 302.61 417.61 304.65 416.69 306.77
  Q 416.03 308.32 415.18 311.55
  Q 415.05 312.04 414.68 312.38
  Q 414.20 312.81 414.13 313.12
  C 413.51 315.91 412.17 318.39 411.47 321.03
  Q 410.86 323.33 410.09 325.12
  Q 409.88 325.61 409.16 325.74
  C 398.58 309.68 388.78 292.73 381.26 274.99
  A 0.81 0.81 0.0 0 1 381.52 274.03
  Q 394.14 264.42 396.58 248.11
  Q 396.65 247.67 396.96 247.73
  A 0.20 0.20 0.0 0 1 397.12 247.93
  Q 397.12 248.09 397.12 248.26
  Q 397.12 248.34 397.50 248.38
  Q 397.93 248.42 398.37 248.08
  Q 398.68 247.85 399.01 248.03
  Q 399.46 248.27 399.93 248.04
  Q 400.36 247.83 400.84 247.86
  C 404.38 248.02 408.28 246.96 411.10 246.66
  Q 414.34 246.31 417.56 245.73
  C 419.70 245.34 420.37 244.03 422.13 243.20
  Q 422.39 243.08 422.53 242.82
  Q 422.66 242.59 422.90 242.70
  Q 423.52 243.00 423.63 243.50
  Q 424.04 245.41 423.87 247.13
  Q 423.86 247.27 423.83 247.14
  Q 423.78 246.92 424.10 246.70
  Z"
/>
<path fill="#fe0275" d="
  M 284.90 328.11
  Q 278.28 323.65 270.26 321.01
  C 257.31 316.76 247.43 320.96 235.08 327.21
  Q 234.65 327.43 234.66 327.92
  L 234.66 328.21
  Q 234.08 327.51 233.92 327.03
  Q 230.89 318.33 226.07 310.52
  A 0.75 0.75 0.0 0 1 226.53 309.40
  Q 233.78 307.63 236.69 301.85
  C 239.30 296.66 238.47 287.22 238.50 280.73
  A 0.66 0.66 0.0 0 1 239.51 280.17
  C 250.18 286.81 258.45 292.10 270.20 285.68
  Q 275.27 282.92 280.16 280.00
  A 0.60 0.60 0.0 0 1 281.07 280.51
  Q 281.15 286.25 281.19 292.13
  Q 281.23 298.24 282.60 301.19
  Q 285.58 307.67 293.38 309.34
  A 0.64 0.64 0.0 0 1 293.79 310.31
  Q 288.14 319.18 284.90 328.11
  Z"
/>
<path fill="#2aa2fe" d="
  M 217.61 342.74
  Q 208.00 334.82 200.44 325.04
  Q 195.85 319.11 191.56 312.86
  L 196.63 311.10
  Q 197.15 310.92 197.45 311.39
  C 200.29 315.95 202.96 320.22 206.35 324.69
  C 209.07 328.29 217.51 338.61 217.61 342.74
  Z"
/>
<path fill="#2aa2fe" d="
  M 327.90 312.81
  Q 316.10 329.64 311.47 334.22
  Q 305.97 339.68 300.50 345.24
  Q 300.62 343.59 301.10 342.88
  Q 311.50 327.36 321.92 312.00
  A 1.38 1.38 0.0 0 1 323.47 311.45
  L 327.90 312.81
  Z"
/>
<path fill="#ffffff" d="
  M 191.56 312.86
  Q 195.85 319.11 200.44 325.04
  Q 208.00 334.82 217.61 342.74
  Q 219.89 345.06 221.16 348.50
  Q 221.38 349.11 220.82 348.78
  C 207.75 341.03 198.92 331.17 190.18 319.07
  Q 188.56 316.82 187.62 314.95
  Q 187.36 314.43 187.91 314.22
  L 191.56 312.86
  Z"
/>
<path fill="#ffffff" d="
  M 327.90 312.81
  L 332.05 314.31
  Q 332.61 314.51 332.24 314.99
  C 321.74 328.46 313.92 339.93 299.30 348.53
  Q 298.21 349.18 298.84 348.08
  L 300.50 345.24
  Q 305.97 339.68 311.47 334.22
  Q 316.10 329.64 327.90 312.81
  Z"
/>
<path fill="#ffffff" d="
  M 254.95 373.93
  L 247.17 357.93
  A 0.32 0.32 0.0 0 1 247.31 357.51
  Q 259.85 350.62 272.24 357.60
  Q 272.65 357.83 272.44 358.25
  L 264.79 373.52
  A 0.28 0.28 0.0 0 0 265.13 373.91
  C 289.67 365.95 313.01 351.54 328.90 330.90
  Q 334.25 323.95 338.80 317.21
  Q 339.08 316.79 339.56 316.96
  L 345.20 318.98
  A 0.36 0.36 0.0 0 1 345.37 319.53
  Q 337.17 331.09 331.91 337.42
  C 313.12 360.03 288.40 373.60 260.74 382.37
  Q 259.75 382.68 258.75 382.38
  C 233.37 374.49 207.87 360.45 190.02 340.25
  Q 186.19 335.91 174.10 319.22
  A 0.19 0.19 0.0 0 1 174.19 318.93
  L 180.06 317.01
  Q 180.38 316.91 180.57 317.18
  Q 186.76 326.27 191.10 331.64
  C 207.07 351.38 230.92 365.92 254.65 374.26
  Q 255.21 374.45 254.95 373.93
  Z"
/>
<path fill="#ffffff" d="
  M 284.90 328.11
  L 280.11 339.30
  Q 279.92 339.76 279.48 339.53
  Q 259.82 329.32 240.24 339.74
  A 0.56 0.56 0.0 0 1 239.47 339.47
  L 234.66 328.21
  L 234.66 327.92
  Q 234.65 327.43 235.08 327.21
  C 247.43 320.96 257.31 316.76 270.26 321.01
  Q 278.28 323.65 284.90 328.11
  Z"
/>
<path fill="#2aa2fe" d="
  M 180.54 344.09
  Q 179.83 345.04 180.23 346.75
  Q 180.44 347.62 179.63 348.08
  L 165.99 328.82
  Q 166.66 328.04 167.99 328.17
  Q 168.48 328.22 168.74 328.64
  Q 173.99 336.89 180.54 344.09
  Z"
/>
<path fill="#2aa2fe" d="
  M 353.52 329.09
  L 339.12 349.59
  L 338.93 344.69
  Q 344.79 336.89 350.78 329.12
  Q 351.44 328.26 352.00 328.30
  Q 352.68 328.34 353.52 329.09
  Z"
/>
<path fill="#ffffff" d="
  M 353.52 329.09
  Q 363.10 333.26 367.89 341.22
  Q 370.39 345.36 372.70 356.20
  C 378.42 383.03 383.81 409.88 389.00 436.80
  L 389.06 440.47
  Q 389.07 441.06 388.49 441.13
  C 387.10 441.30 386.01 441.87 384.63 441.86
  Q 381.41 441.84 378.20 442.01
  C 376.32 442.11 373.75 441.64 371.43 442.33
  A 1.13 1.12 77.8 0 1 370.00 441.40
  Q 365.89 412.40 361.81 383.24
  Q 361.14 378.51 360.85 374.09
  A 0.37 0.36 -33.4 0 0 360.16 373.95
  L 352.38 389.51
  Q 352.31 372.17 352.33 356.00
  C 352.34 351.14 346.11 350.89 344.25 354.13
  Q 343.51 355.41 343.51 358.49
  Q 343.51 385.75 343.49 413.00
  Q 343.49 413.92 342.92 414.90
  C 337.97 423.49 334.08 430.27 323.98 433.03
  C 319.78 434.17 313.88 434.02 308.94 434.55
  Q 298.66 419.30 282.56 411.27
  Q 281.22 410.60 282.72 410.64
  Q 295.51 410.99 308.76 408.79
  C 321.25 406.72 329.14 397.45 331.72 385.75
  Q 335.77 367.44 339.12 349.59
  L 353.52 329.09
  Z"
/>
<path fill="#ff4874" d="
  M 120.67 332.95
  Q 120.63 333.36 121.29 333.36
  Q 120.69 334.44 120.63 335.67
  Q 120.61 336.11 120.32 336.44
  L 119.32 337.59
  A 0.60 0.60 0.0 0 0 119.72 338.59
  Q 121.56 338.75 122.71 340.10
  Q 123.00 340.44 123.43 340.35
  Q 123.60 340.31 123.77 340.34
  Q 124.16 340.39 124.16 340.78
  L 124.17 341.48
  Q 124.17 341.90 124.52 342.13
  Q 124.94 342.40 125.11 342.85
  Q 125.29 343.33 124.98 343.75
  Q 124.45 344.48 124.85 345.35
  Q 121.01 352.40 117.78 359.75
  C 111.22 374.66 107.77 395.54 113.57 411.22
  Q 114.71 414.32 112.57 411.80
  C 92.00 387.54 105.95 355.40 120.67 332.95
  Z"
/>
<path fill="#ffffff" d="
  M 243.03 346.44
  C 255.12 341.09 264.41 339.60 276.12 346.44
  Q 277.04 346.98 276.60 347.94
  L 275.57 350.20
  A 0.93 0.92 -62.5 0 1 274.26 350.62
  C 264.58 344.92 254.65 345.84 244.89 350.52
  Q 244.39 350.76 244.15 350.26
  L 242.74 347.21
  Q 242.50 346.68 243.03 346.44
  Z"
/>
<path fill="#fe0275" d="
  M 180.54 344.09
  Q 183.09 347.08 185.55 350.06
  C 187.95 352.95 187.94 355.69 188.99 359.04
  Q 193.36 373.02 197.47 387.07
  C 198.00 388.88 198.69 388.81 200.22 389.53
  Q 219.96 398.81 241.06 403.62
  A 1.07 1.06 -81.8 0 1 241.88 404.73
  Q 241.48 410.13 244.36 414.69
  A 0.50 0.49 61.0 0 1 244.16 415.39
  Q 235.81 419.46 231.46 427.68
  Q 230.75 429.02 232.01 428.18
  Q 239.76 422.98 248.82 420.65
  A 0.47 0.47 0.0 0 1 249.36 421.31
  Q 244.53 431.37 241.21 442.63
  L 206.53 442.85
  Q 207.50 438.79 210.70 434.18
  Q 220.79 419.65 236.47 411.50
  Q 237.84 410.79 236.30 410.79
  Q 224.93 410.79 213.22 409.54
  Q 198.15 407.93 191.47 396.21
  Q 189.08 392.03 186.95 381.83
  Q 183.65 366.06 180.36 350.27
  Q 180.11 349.07 179.63 348.08
  Q 180.44 347.62 180.23 346.75
  Q 179.83 345.04 180.54 344.09
  Z"
/>
<path fill="#fe0275" d="
  M 338.93 344.69
  L 339.12 349.59
  Q 335.77 367.44 331.72 385.75
  C 329.14 397.45 321.25 406.72 308.76 408.79
  Q 295.51 410.99 282.72 410.64
  Q 281.22 410.60 282.56 411.27
  Q 298.66 419.30 308.94 434.55
  C 309.75 436.37 312.03 439.01 312.17 441.24
  C 311.31 441.60 310.54 441.97 309.57 441.93
  C 304.68 441.76 299.91 441.04 295.13 441.23
  Q 287.34 441.52 279.64 441.64
  A 1.79 1.77 78.9 0 1 277.95 440.49
  L 270.71 421.47
  A 0.50 0.50 0.0 0 1 271.31 420.81
  Q 280.69 423.33 288.68 428.81
  Q 289.50 429.36 289.01 428.51
  Q 283.98 419.77 275.06 415.17
  A 0.49 0.48 31.7 0 1 274.89 414.46
  Q 277.75 410.45 277.39 405.47
  A 1.93 1.93 0.0 0 1 278.88 403.46
  Q 300.49 398.51 320.18 388.67
  C 323.07 387.22 322.40 385.32 323.23 382.77
  Q 327.88 368.61 331.96 354.29
  C 333.08 350.36 336.30 347.64 338.93 344.69
  Z"
/>
<path fill="#000061" d="
  M 176.36 413.76
  Q 176.12 427.63 175.96 441.00
  Q 175.93 443.12 173.76 443.16
  Q 171.19 443.21 169.57 443.09
  A 2.29 2.28 -88.0 0 1 167.46 440.82
  L 167.42 389.93
  L 167.52 355.16
  A 3.12 3.12 0.0 0 1 170.95 352.06
  L 171.96 352.16
  Q 176.24 352.58 176.25 356.88
  L 176.36 413.76
  Z"
/>
<path fill="#000061" d="
  M 352.38 389.51
  Q 352.16 413.42 352.22 438.50
  Q 352.23 440.40 351.78 442.31
  Q 351.63 442.95 350.98 442.96
  L 345.29 443.07
  Q 343.47 443.11 343.48 441.29
  L 343.66 416.00
  Q 343.66 415.59 343.29 415.40
  Q 343.00 415.25 342.92 414.90
  Q 343.49 413.92 343.49 413.00
  Q 343.51 385.75 343.51 358.49
  Q 343.51 355.41 344.25 354.13
  C 346.11 350.89 352.34 351.14 352.33 356.00
  Q 352.31 372.17 352.38 389.51
  Z"
/>
<path fill="#ff565e" d="
  M 202.70 365.49
  Q 203.63 367.05 204.40 368.65
  Q 205.25 370.44 206.36 371.60
  C 214.91 380.52 224.55 386.68 234.69 393.52
  Q 235.12 393.81 234.80 394.20
  L 234.49 394.57
  Q 218.87 390.21 203.94 383.65
  A 1.81 1.77 -87.5 0 1 202.97 382.57
  L 195.80 361.26
  Q 195.10 359.16 196.80 360.58
  L 202.70 365.49
  Z"
/>
<path fill="#ff565e" d="
  M 286.71 394.42
  Q 286.01 393.58 286.94 393.01
  C 289.32 391.58 291.24 389.18 293.63 387.53
  C 305.03 379.66 313.45 373.47 320.81 362.17
  L 323.09 360.39
  Q 324.49 359.30 323.91 360.98
  Q 320.33 371.23 316.87 381.79
  C 316.37 383.30 313.88 384.20 312.37 384.88
  Q 299.88 390.44 286.71 394.42
  Z"
/>
<path fill="#fe0275" d="
  M 320.81 362.17
  C 313.45 373.47 305.03 379.66 293.63 387.53
  C 291.24 389.18 289.32 391.58 286.94 393.01
  Q 286.01 393.58 286.71 394.42
  L 276.19 397.55
  Q 275.94 397.62 275.76 397.43
  L 268.83 389.81
  Q 268.65 389.61 268.90 389.53
  Q 286.16 384.25 301.20 375.44
  Q 311.07 369.67 320.81 362.17
  Z"
/>
<path fill="#fe0275" d="
  M 202.70 365.49
  Q 205.49 367.08 208.10 368.86
  Q 227.61 382.13 250.24 389.65
  Q 250.45 389.72 250.31 389.88
  L 243.59 397.44
  Q 243.45 397.60 243.25 397.53
  L 234.49 394.57
  L 234.80 394.20
  Q 235.12 393.81 234.69 393.52
  C 224.55 386.68 214.91 380.52 206.36 371.60
  Q 205.25 370.44 204.40 368.65
  Q 203.63 367.05 202.70 365.49
  Z"
/>
<path fill="#2aa2fe" d="
  M 167.42 389.93
  L 167.46 440.82
  A 2.29 2.28 -88.0 0 0 169.57 443.09
  Q 171.19 443.21 173.76 443.16
  Q 175.93 443.12 175.96 441.00
  Q 176.12 427.63 176.36 413.76
  Q 181.81 425.49 190.57 431.18
  C 195.52 434.40 203.35 434.25 210.70 434.18
  Q 207.50 438.79 206.53 442.85
  Q 202.96 443.85 202.00 443.83
  C 192.40 443.58 183.19 443.69 173.18 443.55
  C 165.67 443.44 158.24 444.16 150.31 443.06
  Q 149.72 442.98 149.80 442.39
  L 158.93 373.94
  A 0.34 0.34 0.0 0 1 159.58 373.86
  Q 162.47 381.68 167.42 389.93
  Z"
/>
<path fill="#2aa2fe" d="
  M 389.00 436.80
  L 390.16 440.92
  Q 387.26 442.74 383.00 442.40
  C 375.69 441.83 367.72 443.66 359.67 443.72
  C 355.41 443.75 348.76 443.29 343.28 443.50
  C 335.47 443.79 327.77 443.28 319.99 443.49
  C 317.43 443.55 314.76 442.85 312.03 442.86
  Q 312.16 442.73 312.46 442.67
  Q 312.87 442.59 312.68 442.22
  L 312.17 441.24
  C 312.03 439.01 309.75 436.37 308.94 434.55
  C 313.88 434.02 319.78 434.17 323.98 433.03
  C 334.08 430.27 337.97 423.49 342.92 414.90
  Q 343.00 415.25 343.29 415.40
  Q 343.66 415.59 343.66 416.00
  L 343.48 441.29
  Q 343.47 443.11 345.29 443.07
  L 350.98 442.96
  Q 351.63 442.95 351.78 442.31
  Q 352.23 440.40 352.22 438.50
  Q 352.16 413.42 352.38 389.51
  L 360.16 373.95
  A 0.37 0.36 -33.4 0 1 360.85 374.09
  Q 361.14 378.51 361.81 383.24
  Q 365.89 412.40 370.00 441.40
  A 1.13 1.12 77.8 0 0 371.43 442.33
  C 373.75 441.64 376.32 442.11 378.20 442.01
  Q 381.41 441.84 384.63 441.86
  C 386.01 441.87 387.10 441.30 388.49 441.13
  Q 389.07 441.06 389.06 440.47
  L 389.00 436.80
  Z"
/>
<path fill="#ffffff" d="
  M 269.62 409.00
  Q 269.12 409.03 268.77 408.03
  C 269.76 394.33 250.12 394.00 250.40 407.48
  Q 250.26 408.32 249.64 408.30
  C 246.80 397.98 259.04 390.63 266.76 397.98
  Q 271.53 402.51 269.62 409.00
  Z"
/>
<path fill="#fa502d" d="
  M 268.77 408.03
  Q 268.90 408.58 268.37 409.01
  Q 261.26 414.76 253.53 410.50
  C 252.26 409.81 251.39 408.56 250.40 407.48
  C 250.12 394.00 269.76 394.33 268.77 408.03
  Z"
/>
<path fill="#fe0275" d="
  M 250.40 407.48
  C 251.39 408.56 252.26 409.81 253.53 410.50
  Q 261.26 414.76 268.37 409.01
  Q 268.90 408.58 268.77 408.03
  Q 269.12 409.03 269.62 409.00
  C 265.19 418.36 252.74 418.39 249.64 408.30
  Q 250.26 408.32 250.40 407.48
  Z"
/>
<path fill="#2aa2fe" d="
  M 268.76 442.59
  L 250.61 442.72
  L 256.59 423.71
  Q 256.78 423.13 257.39 423.15
  L 262.20 423.28
  A 1.12 1.11 -7.5 0 1 263.24 424.07
  L 268.76 442.59
  Z"
/>
</svg>
